<?xml version="1.0" encoding="UTF-8"?>
<svg version="1.1" xmlns="http://www.w3.org/2000/svg" width="600" height="592">
<path d="M0 0 C198 0 396 0 600 0 C600 195.36 600 390.72 600 592 C402 592 204 592 0 592 C0 396.64 0 201.28 0 0 Z " fill="#FDFDFD" transform="translate(0,0)"/>
<path d="M0 0 C1.27373474 -0.00637985 2.54746948 -0.0127597 3.85980225 -0.01933289 C5.24019329 -0.02086489 6.62058486 -0.02197706 8.00097656 -0.02270508 C9.45086701 -0.02592959 10.90075715 -0.02929449 12.35064697 -0.03279114 C15.39685819 -0.03877038 18.44304114 -0.04063299 21.48925781 -0.04003906 C24.55507436 -0.0399588 27.6207383 -0.04673852 30.68652344 -0.06054688 C56.47542277 -0.17465261 81.94532594 0.49612683 107.39160156 5.14526367 C108.01140407 55.16173676 108.01140407 55.16173676 104.39160156 75.14526367 C104.15914439 76.58114109 103.92859048 78.01732829 103.70019531 79.45385742 C98.76093847 109.21073858 89.06313164 142.23268596 64.14160156 161.31323242 C53.01435024 168.72613139 40.70254343 171.71762678 27.45410156 171.58276367 C26.39868164 171.57446533 25.34326172 171.56616699 24.25585938 171.55761719 C16.67980216 171.39299671 10.22520543 170.61383533 3.39160156 167.14526367 C1.92980469 166.45110352 1.92980469 166.45110352 0.43847656 165.74291992 C-21.86022116 154.05039766 -33.24362061 130.54167126 -40.45288086 107.49511719 C-50.46930764 73.89728339 -50.9799777 39.89364172 -50.60839844 5.14526367 C-42.54145813 3.48173635 -34.57082631 2.62804612 -26.35839844 2.08276367 C-24.10304141 1.92735467 -21.84782679 1.76986237 -19.59277344 1.61010742 C-18.61018555 1.54428467 -17.62759766 1.47846191 -16.61523438 1.41064453 C-14.51370139 1.22516496 -12.41831311 0.96083771 -10.33349609 0.63775635 C-6.83736803 0.17553559 -3.52309737 0.01208728 0 0 Z " fill="#4C4C4C" transform="translate(263.6083984375,273.854736328125)"/>
<path d="M0 0 C2.5625 1.6875 2.5625 1.6875 4 3.1875 C6.43838075 5.52834552 9.46451014 6.42535598 12.5625 7.6875 C13.5625 8.6875 13.5625 8.6875 13.625 11.25 C13.604375 12.054375 13.58375 12.85875 13.5625 13.6875 C12.5725 13.6875 11.5825 13.6875 10.5625 13.6875 C10.5625 13.0275 10.5625 12.3675 10.5625 11.6875 C8.9125 12.0175 7.2625 12.3475 5.5625 12.6875 C6.2225 12.6875 6.8825 12.6875 7.5625 12.6875 C7.5625 13.6775 7.5625 14.6675 7.5625 15.6875 C6.87542969 15.88085938 6.18835938 16.07421875 5.48046875 16.2734375 C4.57941406 16.53382813 3.67835938 16.79421875 2.75 17.0625 C1.85667969 17.31773437 0.96335937 17.57296875 0.04296875 17.8359375 C-2.64217896 18.64016661 -2.64217896 18.64016661 -5.4375 20.6875 C-6.7575 20.6875 -8.0775 20.6875 -9.4375 20.6875 C-8.9425 25.6375 -8.9425 25.6375 -8.4375 30.6875 C-6.4575 31.1825 -6.4575 31.1825 -4.4375 31.6875 C-4.7675 32.6775 -5.0975 33.6675 -5.4375 34.6875 C-6.9225 35.1825 -6.9225 35.1825 -8.4375 35.6875 C-7.65116078 36.83699588 -6.85823742 37.98198989 -6.0625 39.125 C-5.62164062 39.76308594 -5.18078125 40.40117187 -4.7265625 41.05859375 C-3.51589147 42.82490928 -3.51589147 42.82490928 -1.4375 43.6875 C2.21026857 44.01911532 4.13674128 43.92403262 7.375 42.125 C11.77759588 40.13951558 14.98404081 40.20806591 19.5625 41.6875 C27.23409069 45.97790813 31.09395914 53.93747902 34.5625 61.6875 C34.5625 62.3475 34.5625 63.0075 34.5625 63.6875 C35.2225 63.6875 35.8825 63.6875 36.5625 63.6875 C36.82546875 62.81222656 37.0884375 61.93695313 37.359375 61.03515625 C40.33504812 52.7554424 45.51797243 44.70976378 53.5625 40.6875 C55.5859375 40.73828125 55.5859375 40.73828125 57.9375 41 C58.70835937 41.07863281 59.47921875 41.15726563 60.2734375 41.23828125 C62.6694638 41.70849119 64.40591712 42.57141278 66.5625 43.6875 C70.38458189 44.17542535 72.03168717 44.02528998 75.3125 41.9375 C77.36629732 39.88370268 78.51123212 38.36345462 79.5625 35.6875 C78.2425 35.0275 76.9225 34.3675 75.5625 33.6875 C75.5625 33.0275 75.5625 32.3675 75.5625 31.6875 C76.20703125 31.45289063 76.8515625 31.21828125 77.515625 30.9765625 C79.7702908 29.87588927 79.7702908 29.87588927 80.171875 27.5234375 C80.21828125 26.71132812 80.2646875 25.89921875 80.3125 25.0625 C80.36921875 24.24523437 80.4259375 23.42796875 80.484375 22.5859375 C80.51015625 21.95945313 80.5359375 21.33296875 80.5625 20.6875 C79.77875 20.72875 78.995 20.77 78.1875 20.8125 C75.5625 20.6875 75.5625 20.6875 73.5625 18.6875 C71.24076495 18.11239132 68.91811652 17.7365056 66.55859375 17.34765625 C65.89988281 17.12980469 65.24117187 16.91195312 64.5625 16.6875 C64.2325 15.6975 63.9025 14.7075 63.5625 13.6875 C65.2125 13.3575 66.8625 13.0275 68.5625 12.6875 C66.2525 12.6875 63.9425 12.6875 61.5625 12.6875 C61.2325 13.3475 60.9025 14.0075 60.5625 14.6875 C59.5725 14.3575 58.5825 14.0275 57.5625 13.6875 C57.5625 10.9375 57.5625 10.9375 58.5625 7.6875 C60.46118873 6.38326055 62.3797218 5.53375937 64.49609375 4.62890625 C67.20800987 3.39342083 69.27836022 1.58007296 71.5625 -0.3125 C76.986749 -2.120583 82.06010452 -2.25935234 87.453125 -0.21875 C93.50581979 2.89028448 97.51003933 6.31041229 101.5625 11.6875 C102.82430286 13.13293321 104.09531604 14.57037327 105.375 16 C108.4415932 19.4456864 108.4415932 19.4456864 109.5625 21.6875 C107.5825 21.6875 105.6025 21.6875 103.5625 21.6875 C104.49244117 23.62863934 105.4317453 25.5652951 106.375 27.5 C106.89707031 28.57894531 107.41914063 29.65789062 107.95703125 30.76953125 C109.34087685 33.28469587 110.52827747 34.75101789 112.5625 36.6875 C112.5625 37.3475 112.5625 38.0075 112.5625 38.6875 C110.5825 38.6875 108.6025 38.6875 106.5625 38.6875 C107.14424845 43.9961849 107.14424845 43.9961849 109.5625 48.6875 C115.30117971 48.5023813 118.75438344 47.82789896 123.5625 44.625 C128.36113877 41.53750374 131.93032988 40.50012085 137.5625 41.6875 C145.67732756 44.85090736 149.31653222 51.53770306 152.75 59.25 C156.32656545 68.89182435 157.60606824 79.03642387 158 89.25 C158.27356237 95.31000124 158.97806201 98.83116466 162.5625 103.6875 C162.5625 104.3475 162.5625 105.0075 162.5625 105.6875 C156.03942308 105.19519231 156.03942308 105.19519231 153.625 102.625 C153.274375 101.985625 152.92375 101.34625 152.5625 100.6875 C152.72331055 101.41404785 152.88412109 102.1405957 153.04980469 102.88916016 C155.22077891 114.73854421 154.03944032 127.69418938 151.296875 139.32421875 C150.18749409 144.40494726 149.84244981 149.50360179 149.5625 154.6875 C144.7734375 153.921875 144.7734375 153.921875 142.875 151.8125 C142.441875 151.11125 142.00875 150.41 141.5625 149.6875 C140.9025 148.6975 140.2425 147.7075 139.5625 146.6875 C139.376875 147.54794922 139.376875 147.54794922 139.1875 148.42578125 C135.93868665 161.80683124 130.19549545 174.35439915 122.97265625 186.01953125 C120.83251414 190.06860898 120.05275113 194.16518345 119.5625 198.6875 C114.2550396 197.32272447 112.2468725 194.15820038 109.5625 189.6875 C105.65742387 182.76486503 109.08912937 174.22631724 110.9375 167 C112.72238025 159.74559459 114.20524596 152.52334911 115.25 145.125 C115.35683105 144.37323486 115.46366211 143.62146973 115.57373047 142.84692383 C115.93543898 140.13015998 116.25256275 137.4106987 116.5625 134.6875 C116.64201904 134.01289734 116.72153809 133.33829468 116.8034668 132.64324951 C118.38192073 119.07067081 118.96443302 105.59338187 119.1875 91.9375 C119.22582983 89.95701693 119.26488921 87.97654785 119.3046875 85.99609375 C119.39898756 81.22668078 119.48358259 76.45719126 119.5625 71.6875 C118.72743927 71.63316803 117.89237854 71.57883606 117.03201294 71.52285767 C110.75221004 71.09662621 104.49800477 70.60298951 98.23779297 69.94677734 C79.20029194 67.97320972 60.3696773 67.20930379 41.23388672 67.29638672 C37.45117269 67.3134461 33.66909437 67.30331281 29.88640213 67.28604507 C-3.77302721 66.98681486 -3.77302721 66.98681486 -37.06637573 71.22988892 C-39.52318395 71.70403643 -41.75172821 71.78728764 -44.25 71.75 C-45.04019531 71.74097656 -45.83039063 71.73195313 -46.64453125 71.72265625 C-47.23621094 71.71105469 -47.82789063 71.69945312 -48.4375 71.6875 C-47.52405131 125.21076956 -47.52405131 125.21076956 -37.0390625 177.55859375 C-36.02011791 182.85842892 -36.80163973 187.44289786 -39.6875 192 C-40.08453125 192.65613281 -40.4815625 193.31226563 -40.890625 193.98828125 C-42.83493918 196.12408092 -44.7247858 196.79084782 -47.4375 197.6875 C-47.61023438 197.11386719 -47.78296875 196.54023438 -47.9609375 195.94921875 C-50.1237818 189.41107932 -53.03555094 183.52885874 -56.3125 177.5 C-59.60168248 171.4157675 -62.58539134 165.3611068 -65 158.875 C-65.23895996 158.23602783 -65.47791992 157.59705566 -65.72412109 156.9387207 C-67.05271571 153.21895299 -67.90445825 149.59846925 -68.4375 145.6875 C-68.74042969 146.25339844 -69.04335937 146.81929687 -69.35546875 147.40234375 C-69.77441406 148.13582031 -70.19335938 148.86929688 -70.625 149.625 C-71.03105469 150.35589844 -71.43710938 151.08679688 -71.85546875 151.83984375 C-73.88603257 154.21134174 -75.39700587 154.36556533 -78.4375 154.6875 C-78.48648438 153.841875 -78.53546875 152.99625 -78.5859375 152.125 C-78.66070312 150.990625 -78.73546875 149.85625 -78.8125 148.6875 C-78.88210937 147.57375 -78.95171875 146.46 -79.0234375 145.3125 C-79.35093661 141.63477155 -79.35093661 141.63477155 -80.45117188 137.9609375 C-81.49860754 133.85960594 -81.69681129 129.90680005 -81.6328125 125.6875 C-81.6299826 124.9663501 -81.62715271 124.2452002 -81.62423706 123.50219727 C-81.61316696 121.23045253 -81.58808895 118.95912273 -81.5625 116.6875 C-81.5524531 115.13412033 -81.54333027 113.5807344 -81.53515625 112.02734375 C-81.51327111 108.24723938 -81.47883514 104.46743968 -81.4375 100.6875 C-82.58798828 101.91533203 -82.58798828 101.91533203 -83.76171875 103.16796875 C-86.4375 105.6875 -86.4375 105.6875 -89.25 106 C-89.971875 105.896875 -90.69375 105.79375 -91.4375 105.6875 C-89.4375 101.6875 -89.4375 101.6875 -88.390625 99.984375 C-87.08785226 96.84490627 -87.15293973 94.0824685 -87.0625 90.6875 C-86.29038606 74.01606251 -83.759581 55.74915606 -70.953125 43.89453125 C-67.60624805 41.22910605 -64.52753952 41.1875 -60.36328125 41.1875 C-55.66706924 41.99005693 -52.18733787 44.5947362 -48.2109375 47.109375 C-44.46098716 49.24314956 -42.60744583 49.75216702 -38.4375 48.6875 C-35.81677789 45.62999087 -35.00068563 42.62979943 -34.4375 38.6875 C-37.4075 39.1825 -37.4075 39.1825 -40.4375 39.6875 C-40.7675 38.6975 -41.0975 37.7075 -41.4375 36.6875 C-40.32375 35.759375 -40.32375 35.759375 -39.1875 34.8125 C-35.50169726 31.18970244 -34.10236016 26.47746079 -32.4375 21.6875 C-34.0875 22.0175 -35.7375 22.3475 -37.4375 22.6875 C-37.9325 21.2025 -37.9325 21.2025 -38.4375 19.6875 C-38.00179687 19.3471875 -37.56609375 19.006875 -37.1171875 18.65625 C-33.74655882 15.91305436 -31.02346428 13.28216692 -28.5625 9.6875 C-21.91762248 0.35601432 -10.94821075 -4.18022592 0 0 Z " fill="#4E4E4E" transform="translate(256.4375,202.3125)"/>
<path d="M0 0 C0.66 0 1.32 0 2 0 C3.00577013 2.76886123 4.00480147 5.53984104 5 8.3125 C5.28617187 9.09818359 5.57234375 9.88386719 5.8671875 10.69335938 C6.13789063 11.45068359 6.40859375 12.20800781 6.6875 12.98828125 C6.93886719 13.68477783 7.19023437 14.38127441 7.44921875 15.09887695 C8 17 8 17 8 20 C14.6 17.03 21.2 14.06 28 11 C26.47235205 15.58294384 24.80101478 19.96083215 22.875 24.375 C22.59785156 25.01566406 22.32070313 25.65632813 22.03515625 26.31640625 C21.35899615 27.87856925 20.67981293 29.43942315 20 31 C21.20398438 31.40992188 22.40796875 31.81984375 23.6484375 32.2421875 C25.22406356 32.78615364 26.79957868 33.33044118 28.375 33.875 C29.1690625 34.14441406 29.963125 34.41382813 30.78125 34.69140625 C31.54179687 34.95566406 32.30234375 35.21992188 33.0859375 35.4921875 C33.7876709 35.73308105 34.4894043 35.97397461 35.21240234 36.22216797 C37 37 37 37 39 39 C36.20964954 40.00380916 33.41785145 41.0031945 30.625 42 C29.8309375 42.28617187 29.036875 42.57234375 28.21875 42.8671875 C27.45820313 43.13789063 26.69765625 43.40859375 25.9140625 43.6875 C25.2123291 43.93886719 24.5105957 44.19023437 23.78759766 44.44921875 C22 45 22 45 20 45 C21.90068174 49.9336845 23.82849507 54.79536186 26.25 59.5 C28 63 28 63 28 65 C21.06001352 62.83836487 14.56882431 60.1063786 8 57 C7.81824219 57.60585938 7.63648438 58.21171875 7.44921875 58.8359375 C5.6328125 64.890625 3.81640625 70.9453125 2 77 C0 76 0 76 -0.77783203 74.23413086 C-1.01872559 73.48526611 -1.25961914 72.73640137 -1.5078125 71.96484375 C-1.90419922 70.75151367 -1.90419922 70.75151367 -2.30859375 69.51367188 C-2.57800781 68.66353516 -2.84742188 67.81339844 -3.125 66.9375 C-3.40214844 66.08349609 -3.67929687 65.22949219 -3.96484375 64.34960938 C-4.64997648 62.23514801 -5.32801834 60.1186703 -6 58 C-10.71370756 58.64985095 -14.57686444 60.51561392 -18.8125 62.5625 C-19.50537109 62.89185547 -20.19824219 63.22121094 -20.91210938 63.56054688 C-22.61044948 64.36872251 -24.30555769 65.18368377 -26 66 C-23.76686274 58.55620912 -20.59727921 51.88023305 -17 45 C-17.886875 44.938125 -18.77375 44.87625 -19.6875 44.8125 C-25.74751098 43.98613487 -31.37574696 41.29198883 -37 39 C-35.7233984 36.44679681 -34.90007922 36.41037912 -32.25390625 35.4921875 C-31.12178711 35.09580078 -31.12178711 35.09580078 -29.96679688 34.69140625 C-29.17337891 34.42199219 -28.37996094 34.15257812 -27.5625 33.875 C-26.77294922 33.59785156 -25.98339844 33.32070313 -25.16992188 33.03515625 C-19.29002463 31 -19.29002463 31 -17 31 C-17.27787354 30.4652002 -17.55574707 29.93040039 -17.84204102 29.37939453 C-19.09046764 26.96543744 -20.32659516 24.54539015 -21.5625 22.125 C-22.00013672 21.28324219 -22.43777344 20.44148438 -22.88867188 19.57421875 C-23.29794922 18.76855469 -23.70722656 17.96289062 -24.12890625 17.1328125 C-24.51119385 16.38918457 -24.89348145 15.64555664 -25.28735352 14.87939453 C-25.52252686 14.25919434 -25.7577002 13.63899414 -26 13 C-25.67 12.34 -25.34 11.68 -25 11 C-18.73 13.97 -12.46 16.94 -6 20 C-5.566875 18.370625 -5.13375 16.74125 -4.6875 15.0625 C-3.3034268 9.97438328 -1.73340207 4.97892084 0 0 Z " fill="#FAFAFA" transform="translate(291,313)"/>
<path d="M0 0 C1.32 0 2.64 0 4 0 C4.33 1.32 4.66 2.64 5 4 C5.66 4 6.32 4 7 4 C6.67 6.31 6.34 8.62 6 11 C7.32 10.67 8.64 10.34 10 10 C10.103125 9.21625 10.20625 8.4325 10.3125 7.625 C11 5 11 5 14 3 C14.99 3 15.98 3 17 3 C17.495 6.465 17.495 6.465 18 10 C17.34 10.33 16.68 10.66 16 11 C16 11.99 16 12.98 16 14 C16.99 14 17.98 14 19 14 C19.66 12.35 20.32 10.7 21 9 C24.465 8.505 24.465 8.505 28 8 C20.56495569 27.98929945 20.56495569 27.98929945 16 30.9375 C8.19038927 33.7034038 -2.26673552 34.87358147 -10.1875 31.8125 C-16.13243259 27.98132122 -18.27459944 22.52473791 -20.75 16.1875 C-21.22373047 15.00510742 -21.22373047 15.00510742 -21.70703125 13.79882812 C-22.47899311 11.86892348 -23.24055966 9.93486625 -24 8 C-21.125 7.875 -21.125 7.875 -18 8 C-15.8614515 10.1385485 -15.57344937 11.13275314 -15 14 C-14.01 14 -13.02 14 -12 14 C-11.67 13.01 -11.34 12.02 -11 11 C-11.99 10.67 -12.98 10.34 -14 10 C-13.67 7.69 -13.34 5.38 -13 3 C-10.03824877 3.61277612 -8.61941217 4.25372522 -6 6 C-5.3125 8.625 -5.3125 8.625 -5 11 C-3.68 11.33 -2.36 11.66 -1 12 C-1.33 11.236875 -1.66 10.47375 -2 9.6875 C-3 7 -3 7 -3 4 C-2.34 4 -1.68 4 -1 4 C-0.67 2.68 -0.34 1.36 0 0 Z " fill="#585858" transform="translate(290,146)"/>
<path d="M0 0 C3.5386994 1.65139305 4.81070153 2.71605229 7 6 C7.34374174 10.64051343 6.83083777 13.77163657 5 18 C13.02541373 18.90064763 20.92874673 19.10318364 29 19 C29.99 19 30.98 19 32 19 C29.9977398 21.91965942 28.0191275 24.1197954 25 26 C19.67192655 26.46416345 14.60450904 25.56006736 9.40234375 24.44140625 C6.9381722 23.98863977 4.68932711 23.9001593 2.1875 23.9375 C1.39730469 23.94652344 0.60710937 23.95554688 -0.20703125 23.96484375 C-1.09455078 23.98224609 -1.09455078 23.98224609 -2 24 C-0.2790132 25.99170383 1.44938152 27.97585874 3.19140625 29.94921875 C4.53706232 31.47507067 5.86660376 33.0151644 7.1875 34.5625 C8.89450162 36.25482044 8.89450162 36.25482044 11.125 35.8125 C12.43341635 35.24551958 13.72456434 34.63771783 15 34 C13.46356148 37.68069887 11.21849055 39.98775204 8.375 42.75 C7.55773437 43.54921875 6.74046875 44.3484375 5.8984375 45.171875 C5.27195313 45.77515625 4.64546875 46.3784375 4 47 C3.34 46.67 2.68 46.34 2 46 C2.33 45.67 2.66 45.34 3 45 C3.67373588 42.76002773 3.67373588 42.76002773 3 40 C1.4621079 38.12441052 -0.22985885 36.53223938 -2.0078125 34.8828125 C-3.96313504 33.034841 -5.69482127 31.11034828 -7.4375 29.0625 C-8.6246535 27.70802956 -9.8121668 26.3538744 -11 25 C-11.97646484 23.85144531 -11.97646484 23.85144531 -12.97265625 22.6796875 C-14.89685624 20.55157422 -16.66717708 18.67216018 -19 17 C-22.89459074 16.78918149 -22.89459074 16.78918149 -26 18 C-9.88598256 -1.25821596 -9.88598256 -1.25821596 0 0 Z " fill="#565656" transform="translate(129,113)"/>
<path d="M0 0 C0.66 0 1.32 0 2 0 C2.33 1.65 2.66 3.3 3 5 C7.5205337 5.33748053 12.04146945 5.66924739 16.5625 6 C17.83931641 6.09539062 19.11613281 6.19078125 20.43164062 6.2890625 C21.67236328 6.37929688 22.91308594 6.46953125 24.19140625 6.5625 C25.32779541 6.64628906 26.46418457 6.73007812 27.63500977 6.81640625 C31.09688882 7.00528625 34.53368718 7.0308288 38 7 C38.66 5.68 39.32 4.36 40 3 C40.66 3 41.32 3 42 3 C41.67 6.63 41.34 10.26 41 14 C34.08854479 17.30547858 27.12099325 20.15854004 19.9375 22.8125 C19.0921167 23.12646729 18.2467334 23.44043457 17.37573242 23.76391602 C16.18234253 24.19982056 16.18234253 24.19982056 14.96484375 24.64453125 C14.2493335 24.90596924 13.53382324 25.16740723 12.79663086 25.43676758 C11 26 11 26 9 26 C11.57209986 28.94606159 14.50816843 30.50235754 17.9453125 32.3203125 C19.10417969 32.93777344 20.26304687 33.55523437 21.45703125 34.19140625 C22.67953554 34.83622568 23.90219367 35.48075353 25.125 36.125 C27.52478701 37.39592114 29.92268235 38.67031854 32.3203125 39.9453125 C33.38523926 40.50750488 34.45016602 41.06969727 35.54736328 41.64892578 C38 43 38 43 39 44 C39.41221374 52.38167939 39.41221374 52.38167939 37 56 C36.87625 55.195625 36.7525 54.39125 36.625 53.5625 C36.41875 52.716875 36.2125 51.87125 36 51 C33.35376801 49.67688401 31.09900911 49.68050714 28.14453125 49.46484375 C26.96439453 49.37783203 25.78425781 49.29082031 24.56835938 49.20117188 C23.32892578 49.11416016 22.08949219 49.02714844 20.8125 48.9375 C19.59240234 48.84662109 18.37230469 48.75574219 17.11523438 48.66210938 C11.398469 48.24911112 5.73215727 47.87261873 0 48 C-0.99 50.475 -0.99 50.475 -2 53 C-2.33 53 -2.66 53 -3 53 C-3.05397335 50.5622037 -3.09365616 48.12560315 -3.125 45.6875 C-3.14175781 44.99720703 -3.15851563 44.30691406 -3.17578125 43.59570312 C-3.21217794 39.82864604 -3.14378864 38.21568296 -1 35 C-0.814375 36.2065625 -0.814375 36.2065625 -0.625 37.4375 C-0.41875 38.283125 -0.2125 39.12875 0 40 C7.81298221 43.90649111 21.34965256 42 29 42 C19.1 36.72 9.2 31.44 -1 26 C-0.67 25.01 -0.34 24.02 0 23 C2.75976562 21.66552734 2.75976562 21.66552734 6.40625 20.3359375 C7.04614868 20.09839752 7.68604736 19.86085754 8.34533691 19.61611938 C10.39307366 18.85818963 12.44612108 18.11610518 14.5 17.375 C16.55265996 16.62378114 18.60409682 15.86937163 20.65466309 15.11245728 C22.51437074 14.42766691 24.37723981 13.75148063 26.24023438 13.07568359 C28.87053571 12.26347607 28.87053571 12.26347607 30 11 C20.62087413 10.20177652 11.41213252 9.87126263 2 10 C1.67 11.32 1.34 12.64 1 14 C0.34 14 -0.32 14 -1 14 C-0.67 9.38 -0.34 4.76 0 0 Z " fill="#595959" transform="translate(502,284)"/>
<path d="M0 0 C4.50874259 2.10524219 8.08706654 5.07415954 11.9375 8.1875 C12.64068359 8.73986328 13.34386719 9.29222656 14.06835938 9.86132812 C19.10680861 13.92703084 23.55312052 18.0727557 25.84765625 24.30078125 C26.51708654 30.56908308 25.27382566 35.59417343 22 41 C16.86670714 46.90710134 11.92844821 49.61982759 4.125 50.375 C-4.15303256 50.11966158 -10.78342179 44.15215439 -17 39.25 C-17.77472656 38.64800781 -18.54945313 38.04601562 -19.34765625 37.42578125 C-21.23663612 35.95657468 -23.12051056 34.48131422 -25 33 C-22.50907189 31.75453595 -21.58919267 32.2232422 -19 33 C-13.83077616 27.52670417 -9.12560855 21.73037565 -4.5625 15.75 C-4.03043945 15.06486328 -3.49837891 14.37972656 -2.95019531 13.67382812 C0.77909029 8.85211466 0.77909029 8.85211466 2 3 C1.34 2.01 0.68 1.02 0 0 Z M7 10 C5.15770411 12.04162627 3.51565018 14.05467553 1.875 16.25 C1.39579102 16.8795459 0.91658203 17.5090918 0.42285156 18.15771484 C-0.5676765 19.46085173 -1.55462361 20.76671779 -2.53808594 22.07519531 C-3.91867793 23.89292866 -5.33006897 25.68012941 -6.7578125 27.4609375 C-7.58884816 28.51538351 -8.41959268 29.57005908 -9.25 30.625 C-9.99765625 31.56601563 -10.7453125 32.50703125 -11.515625 33.4765625 C-13.20148455 35.82351251 -13.20148455 35.82351251 -12.91796875 38.1640625 C-11.17935624 41.64128752 -8.4887928 43.4130401 -5 45 C-0.33375968 45.79488005 3.68680953 45.41198133 8.1875 44 C13.81527902 39.99802381 18.66823929 34.95475038 20 28 C20.44848714 23.81412003 20.32769676 21.63018608 18.375 17.875 C15.74902054 14.69618276 13.33886702 12.41535061 10 10 C9.01 10 8.02 10 7 10 Z " fill="#575757" transform="translate(428,85)"/>
<path d="M0 0 C5.22543651 0.69505005 10.01885637 2.15622864 15 3.8125 C15.78117187 4.06064453 16.56234375 4.30878906 17.3671875 4.56445312 C23.94386295 6.74007051 29.9948523 9.31000432 33.30078125 15.82421875 C35.45645066 22.5320839 34.76134943 29.18237005 31.8125 35.5 C29.19318763 40.10408709 26.39179137 42.63326207 21.8125 45.25 C13.75711273 47.39810327 6.18855109 45.6067215 -1.5625 43.125 C-2.46291016 42.85558594 -3.36332031 42.58617187 -4.29101562 42.30859375 C-9.13798705 40.80877618 -9.13798705 40.80877618 -11 40 C-11.33 39.34 -11.66 38.68 -12 38 C-9.525 37.505 -9.525 37.505 -7 37 C-5.69805584 33.21178584 -4.41037724 29.4188643 -3.125 25.625 C-2.76019531 24.56410156 -2.39539063 23.50320312 -2.01953125 22.41015625 C1.51684354 12.91058336 1.51684354 12.91058336 3 3 C1.62609953 1.21203543 1.62609953 1.21203543 0 0 Z M10 6 C7.03951386 12.61755725 4.8500913 19.44781456 2.75 26.375 C2.47978027 27.25510742 2.20956055 28.13521484 1.93115234 29.04199219 C1.68059082 29.88149414 1.4300293 30.72099609 1.171875 31.5859375 C0.9459668 32.3392334 0.72005859 33.0925293 0.48730469 33.86865234 C-0.14859029 36.28550543 -0.14859029 36.28550543 0 40 C5.00015334 43.07701744 9.2591452 43.9276067 15 43 C21.88143528 39.49436316 25.58568727 34.24293818 28 27 C29.00836153 20.91694945 27.98639588 16.67938444 24.4140625 11.66015625 C20.33559105 6.87189557 15.94821787 6.50408626 10 6 Z " fill="#555555" transform="translate(346,51)"/>
<path d="M0 0 C4.15115022 3.68991131 8.46462081 9.11245513 9.05078125 14.8203125 C9.22274732 21.31881964 8.71950486 26.17336915 4.8125 31.5 C-3.03581884 39.52668972 -16.15912446 42.27728417 -27.14453125 42.58203125 C-27.81871094 42.55496094 -28.49289063 42.52789062 -29.1875 42.5 C-28.1875 40.5 -28.1875 40.5 -25.1875 39.5 C-24.85346809 31.69200413 -26.12416678 24.57248145 -27.6875 16.9375 C-27.92597656 15.73802734 -28.16445312 14.53855469 -28.41015625 13.30273438 C-28.99498933 10.36687232 -29.58759909 7.43281346 -30.1875 4.5 C-32.1675 3.84 -34.1475 3.18 -36.1875 2.5 C-36.1875 2.17 -36.1875 1.84 -36.1875 1.5 C-9.26841453 -4.51383824 -9.26841453 -4.51383824 0 0 Z M-24.1875 2.5 C-22.50637635 14.22362542 -20.34165696 25.85595067 -18.1875 37.5 C-16.30611328 37.53480469 -16.30611328 37.53480469 -14.38671875 37.5703125 C-13.68119873 37.58336426 -12.97567871 37.59641602 -12.2487793 37.60986328 C-8.32734815 37.40085653 -5.47297319 35.80284445 -2.7421875 33.03515625 C1.95691428 27.54392017 2.21505115 23.93697037 2.16015625 16.83984375 C1.51808334 10.67161524 -1.38774404 7.17120196 -5.8125 3.0625 C-11.77104663 -0.85759647 -17.95041622 -0.2490979 -24.1875 2.5 Z " fill="#555555" transform="translate(262.1875,51.5)"/>
<path d="M0 0 C5.30226821 4.13668339 8.31818926 9.71176357 9.28125 16.34375 C9.47900487 21.23818313 8.88165516 24.92834916 5.9375 28.9765625 C-0.07786214 33.80752259 -7.17990364 35.95035616 -14.4375 38.2265625 C-16.59146649 38.91827311 -18.74512861 39.61093247 -20.8984375 40.3046875 C-21.84251465 40.6027832 -22.7865918 40.90087891 -23.75927734 41.20800781 C-26.05406099 41.91354859 -26.05406099 41.91354859 -28.0625 42.9765625 C-28.72022428 46.00590741 -28.72022428 46.00590741 -29.0625 48.9765625 C-31.92117556 46.11788694 -32.56362834 42.63482814 -33.6875 38.8515625 C-33.91695312 38.09746094 -34.14640625 37.34335937 -34.3828125 36.56640625 C-34.94835438 34.70483091 -35.50616822 32.84091099 -36.0625 30.9765625 C-35.4025 30.9765625 -34.7425 30.9765625 -34.0625 30.9765625 C-33.7325 32.2965625 -33.4025 33.6165625 -33.0625 34.9765625 C-25.52482661 33.68424139 -18.4137525 31.64925685 -11.1875 29.1640625 C-10.16914062 28.83341797 -9.15078125 28.50277344 -8.1015625 28.16210938 C-0.84149191 25.74263913 -0.84149191 25.74263913 3.9375 19.9765625 C4.75942719 13.60662677 3.67418485 10.16640257 -0.0625 4.9765625 C-5.07896635 1.86546022 -10.44848314 2.40400135 -16.00732422 3.62158203 C-19.20691221 4.50414049 -22.3483562 5.49873266 -25.5 6.5390625 C-26.58732422 6.86197266 -27.67464844 7.18488281 -28.79492188 7.51757812 C-34.27424902 9.06966289 -34.27424902 9.06966289 -38.22705078 12.81591797 C-38.90552209 14.9370602 -38.90552209 14.9370602 -39.0625 17.9765625 C-41.0625 16.9765625 -41.0625 16.9765625 -42.1328125 14.32421875 C-42.65488281 12.69806641 -42.65488281 12.69806641 -43.1875 11.0390625 C-43.54070313 9.95753906 -43.89390625 8.87601562 -44.2578125 7.76171875 C-45.0625 4.9765625 -45.0625 4.9765625 -45.0625 2.9765625 C-44.4025 2.9765625 -43.7425 2.9765625 -43.0625 2.9765625 C-42.4025 4.2965625 -41.7425 5.6165625 -41.0625 6.9765625 C-35.77467083 6.29754752 -31.00830241 4.71858073 -26 2.9765625 C-7.14991571 -3.54787484 -7.14991571 -3.54787484 0 0 Z " fill="#575757" transform="translate(87.0625,349.0234375)"/>
<path d="M0 0 C0.66 1.32 1.32 2.64 2 4 C4.22822948 7.17094196 6.70260289 9.67374321 9.62890625 12.1796875 C14.70739348 16.58330994 19.56802668 21.20411626 24.43945312 25.83398438 C25.11556641 26.47271484 25.79167969 27.11144531 26.48828125 27.76953125 C27.09196533 28.34292236 27.69564941 28.91631348 28.31762695 29.50708008 C30.13755481 31.19091179 30.13755481 31.19091179 33 33 C33 33.66 33 34.32 33 35 C28.84576151 36.14665186 24.75771967 36.2541633 20.47265625 36.39453125 C18.77665635 36.46330184 17.08069352 36.53299169 15.38476562 36.60351562 C12.72094637 36.7108742 10.05742172 36.81266394 7.39282227 36.89868164 C4.81427065 36.9842599 2.23761762 37.09369295 -0.33984375 37.20703125 C-1.13269272 37.22699661 -1.92554169 37.24696198 -2.74241638 37.26753235 C-7.7137639 37.51035811 -10.32970023 38.34525429 -14 42 C-12.90301833 36.30860098 -11.45946923 31.25432063 -9 26 C-8.67 26 -8.34 26 -8 26 C-8 27.65 -8 29.3 -8 31 C-4.04 30.67 -0.08 30.34 4 30 C4.70045456 28.08802961 5.384919 26.17019565 6.0625 24.25 C6.63677734 22.64898437 6.63677734 22.64898437 7.22265625 21.015625 C7.98866242 18.04398297 8.21630964 16.76602396 7 14 C3.5676292 10.65696905 3.5676292 10.65696905 -1 10 C-1.33 10.66 -1.66 11.32 -2 12 C-2.66 11.67 -3.32 11.34 -4 11 C-2.68 7.37 -1.36 3.74 0 0 Z " fill="#595959" transform="translate(496,345)"/>
<path d="M0 0 C0.66 0 1.32 0 2 0 C3.83540769 5.19531118 5.66843405 10.39145402 7.49926758 15.58837891 C8.12231259 17.3558618 8.74600545 19.12311646 9.37036133 20.89013672 C10.26814842 23.431367 11.16359555 25.97341137 12.05859375 28.515625 C12.3377916 29.30430969 12.61698944 30.09299438 12.90464783 30.90557861 C13.16484207 31.64604431 13.42503632 32.38651001 13.69311523 33.14941406 C13.92183823 33.79783264 14.15056122 34.44625122 14.38621521 35.11431885 C15 37 15 37 15.3316803 39.11566162 C15.95110476 41.55345893 15.95110476 41.55345893 20 43 C14.72 43 9.44 43 4 43 C4 42.34 4 41.68 4 41 C5.32 41 6.64 41 8 41 C7.68950274 39.56206608 7.3765224 38.1246682 7.0625 36.6875 C6.88847656 35.88699219 6.71445312 35.08648437 6.53515625 34.26171875 C6.00113841 31.854599 6.00113841 31.854599 5 29 C-0.28 29 -5.56 29 -11 29 C-14.2981424 34.47825081 -14.2981424 34.47825081 -14 39 C-13.34 39.66 -12.68 40.32 -12 41 C-15.63 41 -19.26 41 -23 41 C-22.26104492 40.1747583 -21.52208984 39.3495166 -20.76074219 38.49926758 C-17.80665906 34.94731574 -15.8303154 31.15495925 -13.828125 27.01171875 C-13.46023865 26.26791458 -13.09235229 25.52411041 -12.71331787 24.75776672 C-11.5511766 22.4047105 -10.40016757 20.04642859 -9.25 17.6875 C-8.08341739 15.31183063 -6.91455941 12.93730604 -5.74383545 10.56367493 C-5.01866148 9.09161189 -4.29628546 7.6181666 -3.57696533 6.14323425 C-1.10955091 1.10955091 -1.10955091 1.10955091 0 0 Z " fill="#585858" transform="translate(305,45)"/>
<path d="M0 0 C2 3 2 3 2 5 C2.57218262 4.96970703 3.14436523 4.93941406 3.73388672 4.90820312 C16.50174185 4.24546758 29.21517587 3.8579464 42 4 C37.82356536 9.03742271 33.44328346 13.57848749 28.625 18 C27.96814209 18.6079541 27.31128418 19.2159082 26.63452148 19.84228516 C22.15794635 23.97289028 17.64189527 28.05513053 13 32 C22.07448253 32.11157151 30.96278689 31.94242818 40 31 C40.66 29.35 41.32 27.7 42 26 C42.33 26 42.66 26 43 26 C43.495 32.93 43.495 32.93 44 40 C43.34 40 42.68 40 42 40 C41.505 38.02 41.505 38.02 41 36 C36.19398068 36.06874423 31.38884258 36.15664272 26.58349609 36.26245117 C24.94817866 36.29574214 23.31274518 36.32376106 21.67724609 36.34643555 C19.32859757 36.37990628 16.98101663 36.43221436 14.6328125 36.48828125 C13.53273361 36.49786613 13.53273361 36.49786613 12.41043091 36.50764465 C10.12675244 36.53994543 10.12675244 36.53994543 7 37 C5.0549 39.91765 4.54723683 41.62537285 4 45 C3.34 45 2.68 45 2 45 C1.11887046 40.75250377 0.98311631 37.23621213 2 33 C4.96269413 28.74477703 9.24601938 25.59142847 13.27246094 22.39306641 C15.7813804 20.36990439 18.13227468 18.18531747 20.5 16 C23.59708113 13.19989925 26.72792866 10.61765707 30 8 C21.42 8.33 12.84 8.66 4 9 C3.34 10.65 2.68 12.3 2 14 C1.34 14 0.68 14 0 14 C0 9.38 0 4.76 0 0 Z " fill="#545454" transform="translate(41,288)"/>
<path d="M0 0 C2.64 1.32 5.28 2.64 8 4 C8 4.33 8 4.66 8 5 C6.824375 4.95875 5.64875 4.9175 4.4375 4.875 C1.22560521 5.24141937 0.18038063 5.81119036 -2.08984375 8.1875 C-5.83216223 13.13576803 -5.83216223 13.13576803 -7 19 C-4.88061648 20.70695679 -4.88061648 20.70695679 -2.1875 22.1875 C-1.29417969 22.71730469 -0.40085937 23.24710938 0.51953125 23.79296875 C2.98983507 25.21877928 2.98983507 25.21877928 6 25 C9.68857996 19.4465102 9.68857996 19.4465102 10 13 C9.34 12.01 8.68 11.02 8 10 C12.77609498 11.64178265 16.79382904 14.26546702 21 17 C18 18 18 18 14 18 C11.96546391 20.43234521 11.96546391 20.43234521 10.25 23.5 C9.63640625 24.5209375 9.0228125 25.541875 8.390625 26.59375 C7.93171875 27.3878125 7.4728125 28.181875 7 29 C7.73992187 29.27585938 8.47984375 29.55171875 9.2421875 29.8359375 C12.49439302 31.20868147 15.21499986 33.01243181 18.1328125 34.9765625 C20.08357687 36.24032531 20.08357687 36.24032531 23 36 C26.43547736 31.84566363 28.82226915 27.54879739 29.4375 22.1875 C29.0579545 19.42223992 28.65765954 16.71284559 28 14 C33.86082047 19.55235623 33.86082047 19.55235623 35 23 C34.18896484 25.0871582 34.18896484 25.0871582 32.7109375 27.30078125 C32.18113281 28.11353516 31.65132812 28.92628906 31.10546875 29.76367188 C30.53441406 30.60478516 29.96335938 31.44589844 29.375 32.3125 C28.27738033 33.97442531 27.18100424 35.63717267 26.0859375 37.30078125 C25.55838867 38.09436035 25.03083984 38.88793945 24.48730469 39.70556641 C22.52281498 42.73614327 20.74818263 45.84047968 19 49 C18.34 49 17.68 49 17 49 C17.33064453 47.49179688 17.33064453 47.49179688 17.66796875 45.953125 C17.76651887 43.96711934 17.76651887 43.96711934 17 42 C13.79250161 39.01929442 10.08773795 36.93978021 6.3125 34.75 C5.30509766 34.13898438 4.29769531 33.52796875 3.25976562 32.8984375 C0.5197605 31.24177434 -2.23686725 29.61767251 -5 28 C-5.89050049 27.43442383 -6.78100098 26.86884766 -7.69848633 26.28613281 C-9.87775312 24.76144013 -9.87775312 24.76144013 -12.125 25.3125 C-13.053125 25.6528125 -13.053125 25.6528125 -14 26 C-14.99 26 -15.98 26 -17 26 C-14.73183738 22.41496964 -12.46000734 18.83227758 -10.1875 15.25 C-9.22360352 13.72632813 -9.22360352 13.72632813 -8.24023438 12.171875 C-7.61826172 11.1921875 -6.99628906 10.2125 -6.35546875 9.203125 C-5.49924927 7.85202637 -5.49924927 7.85202637 -4.62573242 6.47363281 C-3.16087683 4.2447821 -1.62719994 2.11212708 0 0 Z " fill="#565656" transform="translate(88,150)"/>
<path d="M0 0 C4.33464694 3.15461601 7.35382422 6.71415282 10.5625 10.9375 C11.50116525 12.15505342 12.43996501 13.37250315 13.37890625 14.58984375 C13.82121582 15.16718262 14.26352539 15.74452148 14.71923828 16.33935547 C16.44995348 18.58341281 18.22104132 20.79409124 20 23 C18.70700306 25.88437779 17.34058637 27.87219421 15 30 C14.34 29.67 13.68 29.34 13 29 C13.66 28.01 14.32 27.02 15 26 C14.73029891 21.77468288 13.07957877 19.40603232 10.4375 16.1875 C9.79683594 15.39730469 9.15617187 14.60710937 8.49609375 13.79296875 C8.00238281 13.20128906 7.50867188 12.60960937 7 12 C3.48197311 13.25166414 0.95810067 14.62602685 -1.8125 17.125 C-2.41707031 17.66382813 -3.02164062 18.20265625 -3.64453125 18.7578125 C-4.09183594 19.16773438 -4.53914063 19.57765625 -5 20 C-3.30131342 23.4564579 -1.83178476 26.31725654 1 29 C3.80033987 29.4345355 6.14235311 29.23813724 9 29 C5.83047153 32.26008643 2.60062011 35.22237877 -1 38 C-1.66 37.67 -2.32 37.34 -3 37 C-2.67 36.67 -2.34 36.34 -2 36 C-1.4648491 32.78909458 -1.46875139 30.77441489 -3.33984375 28.046875 C-4.84323528 26.30647822 -6.37883817 24.63081161 -8 23 C-12.27454425 25.7479213 -16.14126153 28.69250989 -20 32 C-19.1829253 37.76995964 -16.61704719 41.47125679 -12 45 C-8.62922475 45.92108393 -5.48300459 46.11212892 -2 46 C-2.33 46.66 -2.66 47.32 -3 48 C-5.06640625 48.6328125 -5.06640625 48.6328125 -7.5625 49.125 C-8.80193359 49.37636719 -8.80193359 49.37636719 -10.06640625 49.6328125 C-11.02353516 49.81457031 -11.02353516 49.81457031 -12 50 C-18.52013524 42.47347278 -25.01510346 34.96581301 -31 27 C-30.67 26.34 -30.34 25.68 -30 25 C-29.34 25.66 -28.68 26.32 -28 27 C-22.85379428 26.9362417 -19.91101605 23.70456076 -16.3125 20.4375 C-15.07799464 19.34632917 -13.84230912 18.25649213 -12.60546875 17.16796875 C-11.99880371 16.63091309 -11.39213867 16.09385742 -10.76708984 15.54052734 C-6.95883098 12.22053378 -2.97638598 9.11514109 1 6 C0.67 4.02 0.34 2.04 0 0 Z " fill="#575757" transform="translate(475,125)"/>
<path d="M0 0 C3.97497544 3.40712181 5.86793788 7.32760855 8 12 C7.34 12 6.68 12 6 12 C6 11.34 6 10.68 6 10 C1.46705387 7.73352693 -2.0252466 7.6051783 -7 8 C-9.59869315 8.86424561 -9.59869315 8.86424561 -11 11 C-11.41692853 14.58399407 -11.41692853 14.58399407 -11 18 C-9.30885446 19.69114554 -7.14387743 19.168938 -4.828125 19.2109375 C-3.77109375 19.23929688 -2.7140625 19.26765625 -1.625 19.296875 C0.60921503 19.34859294 2.84361311 19.39297017 5.078125 19.4296875 C6.1403125 19.460625 7.2025 19.4915625 8.296875 19.5234375 C9.26979492 19.54325684 10.24271484 19.56307617 11.24511719 19.58349609 C14.48410601 20.07319079 16.36574857 21.07505734 19 23 C21.70090294 27.05135441 21.65047059 30.24343377 21 35 C18.61704425 39.94921579 16.12082679 42.092241 11 44 C7.125 44.6875 7.125 44.6875 4 45 C4 46.32 4 47.64 4 49 C3.34 49 2.68 49 2 49 C0.45703125 46.8828125 0.45703125 46.8828125 -1.1875 44.125 C-1.73792969 43.22007813 -2.28835937 42.31515625 -2.85546875 41.3828125 C-3.23316406 40.59648438 -3.61085937 39.81015625 -4 39 C-3.67 38.34 -3.34 37.68 -3 37 C-2.319375 37.66 -1.63875 38.32 -0.9375 39 C2.75327717 41.51286956 4.60633092 41.5395734 9 41 C13.30843924 39.41772398 13.30843924 39.41772398 16 36 C16.33333333 33 16.33333333 33 16 30 C12.75407604 27.8360507 11.85109226 27.75998 8.10546875 27.76171875 C7.14962891 27.74560547 6.19378906 27.72949219 5.20898438 27.71289062 C3.20644414 27.69606256 1.20377211 27.6907169 -0.79882812 27.69726562 C-9.01843762 27.52613877 -9.01843762 27.52613877 -12.63671875 24.58203125 C-15.39804901 21.56510679 -15.92318545 20.79887127 -16.3125 16.75 C-15.93858014 12.26296168 -14.92745628 10.38968622 -12 7 C-8.41456728 4.78771172 -5.15917236 3.61164299 -1 3 C-0.67 2.01 -0.34 1.02 0 0 Z " fill="#555555" transform="translate(168,77)"/>
<path d="M0 0 C3.14128754 1.57064377 3.57809687 4.66761078 4.6875 7.8125 C4.92533203 8.44220703 5.16316406 9.07191406 5.40820312 9.72070312 C6.63142274 13.13926116 7.43004376 15.55922805 6 19 C5.34 17.68 4.68 16.36 4 15 C-1.29856287 14.75013182 -5.23783942 15.49091156 -10.2109375 17.30078125 C-10.86454254 17.53782272 -11.51814758 17.7748642 -12.19155884 18.01908875 C-13.5599266 18.51879869 -14.92624458 19.02415491 -16.29052734 19.53491211 C-18.38437826 20.31599845 -20.48617223 21.07199315 -22.58984375 21.82617188 C-23.92241699 22.31623707 -25.25446871 22.80772323 -26.5859375 23.30078125 C-27.7929834 23.74591064 -29.0000293 24.19104004 -30.24365234 24.6496582 C-31.15324707 25.095271 -32.0628418 25.54088379 -33 26 C-34.59595379 30.78786138 -32.35142914 34.40669031 -30.52734375 38.94921875 C-28.48570146 43.02728175 -27.16562554 44.26432269 -23 46 C-20.2717496 46.78215588 -20.2717496 46.78215588 -18 47 C-18 47.33 -18 47.66 -18 48 C-22.29 48 -26.58 48 -31 48 C-32.59671127 43.78682589 -34.18124833 39.56935089 -35.75463867 35.34741211 C-36.29167169 33.9115913 -36.83202005 32.477006 -37.37573242 31.04370117 C-38.15636571 28.98411253 -38.92499662 26.92038552 -39.69140625 24.85546875 C-39.93717911 24.21473923 -40.18295197 23.5740097 -40.43617249 22.91386414 C-42.11387171 18.34161512 -42.11387171 18.34161512 -41 15 C-40.01 16.485 -40.01 16.485 -39 18 C-34.24316077 18.5748065 -30.16001486 17.3605051 -25.703125 15.83984375 C-24.69085846 15.49851158 -24.69085846 15.49851158 -23.65814209 15.15028381 C-22.24115125 14.66706765 -20.82598127 14.17848201 -19.41259766 13.68481445 C-17.25068024 12.93773507 -15.07787787 12.23166592 -12.90234375 11.52539062 C-11.52258286 11.04934489 -10.14364369 10.57090939 -8.765625 10.08984375 C-7.79221161 9.78311989 -7.79221161 9.78311989 -6.7991333 9.47019958 C-4.7089665 8.77277982 -4.7089665 8.77277982 -2 7 C-0.48941799 3.43461158 -0.48941799 3.43461158 0 0 Z " fill="#565656" transform="translate(525,192)"/>
<path d="M0 0 C0.66 0 1.32 0 2 0 C2.21785156 0.88042969 2.43570313 1.76085937 2.66015625 2.66796875 C4.27351877 6.68020849 6.19851577 8.46943842 9.4375 11.3125 C9.96811035 11.78324951 10.4987207 12.25399902 11.04541016 12.73901367 C15.45101463 16.61597174 20.00900616 20.30566272 24.57421875 23.9921875 C27.61181102 26.50639431 30.35808306 29.07247041 33 32 C33 32.66 33 33.32 33 34 C31.37372681 34.12060791 31.37372681 34.12060791 29.71459961 34.24365234 C25.66795955 34.54570689 21.62210684 34.85738236 17.57641602 35.171875 C15.82986947 35.30631174 14.08312363 35.43818616 12.33618164 35.56738281 C9.81599271 35.75422317 7.29667938 35.95046055 4.77734375 36.1484375 C3.6175425 36.23138565 3.6175425 36.23138565 2.43431091 36.31600952 C-2.28125879 36.69766379 -6.5303573 37.41055233 -11 39 C-11.33 39.66 -11.66 40.32 -12 41 C-12.66 40.67 -13.32 40.34 -14 40 C-12.35 35.05 -10.7 30.1 -9 25 C-8.34 25 -7.68 25 -7 25 C-6.67 26.65 -6.34 28.3 -6 30 C-2.12474874 29.86041196 1.75012805 29.71222112 5.625 29.5625 C6.71941406 29.52318359 7.81382813 29.48386719 8.94140625 29.44335938 C10.00488281 29.40146484 11.06835938 29.35957031 12.1640625 29.31640625 C13.62513428 29.26141968 13.62513428 29.26141968 15.11572266 29.20532227 C18.1254852 28.99106712 21.03295916 28.54068643 24 28 C18.78985913 23.21932844 13.51852785 18.51074703 8.125 13.9375 C7.24070312 13.18339844 6.35640625 12.42929688 5.4453125 11.65234375 C2.93949106 9.62674535 2.93949106 9.62674535 -1 10 C-1.66 10.66 -2.32 11.32 -3 12 C-2.49202991 7.6822542 -1.80317221 3.96697886 0 0 Z " fill="#555555" transform="translate(62,194)"/>
<path d="M0 0 C2.375 1.625 2.375 1.625 4 4 C4.25 7 4.25 7 4 10 C3.58457138 13.88814492 3.58457138 13.88814492 5.53125 15.921875 C6.1809375 16.52515625 6.830625 17.1284375 7.5 17.75 C8.1496875 18.36359375 8.799375 18.9771875 9.46875 19.609375 C9.9740625 20.06828125 10.479375 20.5271875 11 21 C9.02 21.99 9.02 21.99 7 23 C6.46890625 22.4225 5.9378125 21.845 5.390625 21.25 C4.68421875 20.5075 3.9778125 19.765 3.25 19 C2.55390625 18.2575 1.8578125 17.515 1.140625 16.75 C-1.05531957 14.57804666 -1.05531957 14.57804666 -5 15 C-4.65775391 15.77923828 -4.65775391 15.77923828 -4.30859375 16.57421875 C-2.58951696 20.74471445 -1.46437864 23.53273787 -3 28 C-3.66 28 -4.32 28 -5 28 C-6.53630085 24.40223196 -8.05133278 20.79588889 -9.5625 17.1875 C-10.21895508 15.65125977 -10.21895508 15.65125977 -10.88867188 14.08398438 C-11.29794922 13.10107422 -11.70722656 12.11816406 -12.12890625 11.10546875 C-12.51119385 10.19949951 -12.89348145 9.29353027 -13.28735352 8.36010742 C-14 6 -14 6 -13 3 C-8.60592569 0.67372537 -5.05066886 -0.7856596 0 0 Z " fill="#5B5B5B" transform="translate(383,503)"/>
<path d="M0 0 C0.33 0 0.66 0 1 0 C1.185625 1.2065625 1.185625 1.2065625 1.375 2.4375 C1.58125 3.283125 1.7875 4.12875 2 5 C4.76605854 6.38302927 7.23409046 6.32662773 10.3203125 6.53515625 C12.20556641 6.66567383 12.20556641 6.66567383 14.12890625 6.79882812 C15.46093144 6.8868106 16.79296277 6.97470002 18.125 7.0625 C19.46487045 7.15390628 20.80471464 7.2456984 22.14453125 7.33789062 C25.42944827 7.56239934 28.71458431 7.78293128 32 8 C32 7.01 32 6.02 32 5 C35.40312738 6.05875074 38.01353231 7.00902154 41 9 C41.36792655 13.56228926 41.61838609 17.07242087 39 21 C38.87625 20.195625 38.7525 19.39125 38.625 18.5625 C38.41875 17.716875 38.2125 16.87125 38 16 C35.35376801 14.67688401 33.09900911 14.68050714 30.14453125 14.46484375 C28.96439453 14.37783203 27.78425781 14.29082031 26.56835938 14.20117188 C25.32892578 14.11416016 24.08949219 14.02714844 22.8125 13.9375 C21.59240234 13.84662109 20.37230469 13.75574219 19.11523438 13.66210938 C13.398469 13.24911112 7.73215727 12.87261873 2 13 C1.34 14.65 0.68 16.3 0 18 C-0.33 18 -0.66 18 -1 18 C-1.02698422 15.56242587 -1.04683099 13.12515085 -1.0625 10.6875 C-1.07087891 9.99720703 -1.07925781 9.30691406 -1.08789062 8.59570312 C-1.10307906 5.4516975 -1.00193327 3.00579981 0 0 Z " fill="#575757" transform="translate(500,319)"/>
<path d="M0 0 C-1.32 0.33 -2.64 0.66 -4 1 C-1.77453968 9.02337008 0.90864373 16.88688997 3.8125 24.6875 C4.11929688 25.57276367 4.42609375 26.45802734 4.7421875 27.37011719 C6.34968693 31.93184855 6.34968693 31.93184855 9.82177734 35.02197266 C11.95079757 35.68989524 11.95079757 35.68989524 15 36 C12.55436688 38.44563312 10.24474828 39.34131255 7.0625 40.6875 C5.47115234 41.37392578 5.47115234 41.37392578 3.84765625 42.07421875 C1 43 1 43 -2 42 C-1.01 41.34 -0.02 40.68 1 40 C1.79065227 33.4618688 -1.03919782 27.9910389 -3.47998047 22.06665039 C-4.25206984 20.18244878 -4.99575478 18.28859374 -5.73828125 16.39257812 C-6.22167969 15.20470703 -6.70507812 14.01683594 -7.203125 12.79296875 C-7.64301758 11.7052417 -8.08291016 10.61751465 -8.53613281 9.49682617 C-9.73304868 6.87206456 -9.73304868 6.87206456 -11.98730469 6.20043945 C-12.98358887 6.10122192 -12.98358887 6.10122192 -14 6 C-14.99 5.67 -15.98 5.34 -17 5 C-15.23002526 4.18563132 -13.45898848 3.3735706 -11.6875 2.5625 C-10.70136719 2.11003906 -9.71523437 1.65757813 -8.69921875 1.19140625 C-3.41843088 -1.13947696 -3.41843088 -1.13947696 0 0 Z " fill="#585858" transform="translate(207,62)"/>
<path d="M0 0 C0.66 0 1.32 0 2 0 C2.66 5.61 3.32 11.22 4 17 C3.34 16.67 2.68 16.34 2 16 C2 15.01 2 14.02 2 13 C-10.46886207 14.096022 -22.71066922 15.61217666 -35 18 C-35.33 19.65 -35.66 21.3 -36 23 C-38.15059309 19.46813168 -38.3797728 16.33712007 -38.625 12.25 C-38.69976562 11.07953125 -38.77453125 9.9090625 -38.8515625 8.703125 C-38.90054687 7.81109375 -38.94953125 6.9190625 -39 6 C-37 9 -37 9 -37 11 C-32.35470766 10.30965319 -27.70995743 9.61580201 -23.06567383 8.91870117 C-21.48573983 8.68205979 -19.90566212 8.44637586 -18.32543945 8.21166992 C-16.05381401 7.87410196 -13.78272804 7.5330917 -11.51171875 7.19140625 C-10.80536789 7.08719864 -10.09901703 6.98299103 -9.3712616 6.87562561 C-6.46501171 6.43546601 -3.79577339 5.93192446 -1 5 C-0.67 3.35 -0.34 1.7 0 0 Z " fill="#585858" transform="translate(537,250)"/>
<path d="M0 0 C0.33 0 0.66 0 1 0 C1.33 1.65 1.66 3.3 2 5 C5.91540608 5.65362754 9.83252191 6.2964178 13.75 6.9375 C14.84183594 7.11990234 15.93367188 7.30230469 17.05859375 7.49023438 C24.36029043 8.67838028 31.61925562 9.50010562 39 10 C39.33 8.35 39.66 6.7 40 5 C40.33 5 40.66 5 41 5 C40.03644647 17.66970387 40.03644647 17.66970387 39 23 C38.67 23 38.34 23 38 23 C37.67 21.35 37.34 19.7 37 18 C30.89030279 16.02358599 24.79829316 15.16959239 18.4375 14.375 C16.91479492 14.17390625 16.91479492 14.17390625 15.36132812 13.96875 C8.18525276 12.86266112 8.18525276 12.86266112 1 13 C-0.91256712 14.88077873 -0.91256712 14.88077873 -2 17 C-1.85786703 15.10388566 -1.71113093 13.20811606 -1.5625 11.3125 C-1.48128906 10.25675781 -1.40007813 9.20101563 -1.31640625 8.11328125 C-1.03548319 5.34913703 -0.59843148 2.71054259 0 0 Z " fill="#565656" transform="translate(45,253)"/>
<path d="M0 0 C2.4375 1.5625 2.4375 1.5625 4 4 C4.5625 7.5 4.5625 7.5 4 11 C1.449054 13.84248268 0.0103853 14.91018797 -3.8125 15.25 C-4.534375 15.1675 -5.25625 15.085 -6 15 C-5.67 15.886875 -5.34 16.77375 -5 17.6875 C-4.08777857 20.70923347 -3.81669042 22.88373706 -4 26 C-4.99 26.33 -5.98 26.66 -7 27 C-8.17372973 23.39809458 -9.33776256 19.79312849 -10.5 16.1875 C-10.83386719 15.16333984 -11.16773438 14.13917969 -11.51171875 13.08398438 C-11.82753906 12.10107422 -12.14335937 11.11816406 -12.46875 10.10546875 C-12.76201172 9.19949951 -13.05527344 8.29353027 -13.35742188 7.36010742 C-14 5 -14 5 -14 2 C-9.19532999 0.43112816 -5.11648532 -0.57922475 0 0 Z " fill="#5A5A5A" transform="translate(361,511)"/>
<path d="M0 0 C2.421875 0.7421875 2.421875 0.7421875 5 2 C5.890625 3.8828125 5.890625 3.8828125 6.25 6.125 C6.38664063 6.92035156 6.52328125 7.71570313 6.6640625 8.53515625 C6.77492187 9.34855469 6.88578125 10.16195312 7 11 C7.11085937 11.78246094 7.22171875 12.56492187 7.3359375 13.37109375 C7.5830116 15.24418253 7.79510861 17.1218289 8 19 C9.65 14.71 11.3 10.42 13 6 C14.32 6 15.64 6 17 6 C14.41874331 14.17397951 11.22988119 22.06640834 8 30 C7.01 29.67 6.02 29.34 5 29 C4.09795976 26.29387929 3.733784 24.1469392 3.46484375 21.33203125 C3.38613037 20.52741455 3.30741699 19.72279785 3.22631836 18.89379883 C3.1310083 17.87697021 3.03569824 16.8601416 2.9375 15.8125 C2.628125 12.574375 2.31875 9.33625 2 6 C-0.31 12.27 -2.62 18.54 -5 25 C-5.99 24.67 -6.98 24.34 -8 24 C-7.3661521 18.482845 -5.49435691 13.73252191 -3.4375 8.625 C-2.9434668 7.37783203 -2.9434668 7.37783203 -2.43945312 6.10546875 C-1.63155238 4.06815382 -0.8182989 2.03315558 0 0 Z " fill="#5A5A5A" transform="translate(202,502)"/>
<path d="M0 0 C2.5 0.125 2.5 0.125 3.5 1.125 C3.79607956 2.54870961 4.037628 3.98387783 4.25390625 5.421875 C4.45209961 6.73671875 4.45209961 6.73671875 4.65429688 8.078125 C4.78900391 9.00109375 4.92371094 9.9240625 5.0625 10.875 C5.20107422 11.7825 5.33964844 12.69 5.48242188 13.625 C6.10830509 17.84277457 6.57545061 21.85231259 6.5 26.125 C5.18 26.125 3.86 26.125 2.5 26.125 C2.5 23.485 2.5 20.845 2.5 18.125 C-0.47 18.455 -3.44 18.785 -6.5 19.125 C-7.49 21.6 -7.49 21.6 -8.5 24.125 C-9.82 24.125 -11.14 24.125 -12.5 24.125 C-5.09194396 0.2545972 -5.09194396 0.2545972 0 0 Z " fill="#5E5E5E" transform="translate(265.5,518.875)"/>
<path d="M0 0 C4.19001615 1.63562076 6.98233899 4.72303156 10.0625 7.875 C10.59166016 8.40480469 11.12082031 8.93460937 11.66601562 9.48046875 C19 16.89727102 19 16.89727102 19 20 C16.625 19.6875 16.625 19.6875 14 19 C13.34 18.01 12.68 17.02 12 16 C9.36 16.66 6.72 17.32 4 18 C4.33 20.97 4.66 23.94 5 27 C4.01 27.33 3.02 27.66 2 28 C0.35 19.42 -1.3 10.84 -3 2 C-2.01 1.34 -1.02 0.68 0 0 Z " fill="#595959" transform="translate(397,494)"/>
<path d="M0 0 C4.18077873 0.95809513 6.1508053 2.49911546 9 5.6875 C9.73546423 9.29796075 9.70046976 11.45265125 7.86328125 14.69140625 C6.65021705 16.41194144 5.33126382 18.05670182 4 19.6875 C-0.88049925 15.7455583 -5.0580583 11.56799925 -9 6.6875 C-3.93811075 0.90248371 -3.93811075 0.90248371 0 0 Z " fill="#F7F7F7" transform="translate(122,117.3125)"/>
<path d="M0 0 C0 1.32 0 2.64 0 4 C-1.98 4 -3.96 4 -6 4 C-6.33 5.65 -6.66 7.3 -7 9 C-3.29511898 10.37217815 -1.5574796 9.43993222 2 8 C5.62353466 7.55630188 7.30282628 7.54133308 10.375 9.5625 C12.66695944 13.00043916 12.71061529 14.94949283 12 19 C9.01304516 22.34254471 7.24132722 23.85676994 2.75 24.375 C0 24 0 24 -2 23 C-1.67 22.01 -1.34 21.02 -1 20 C2.96 19.505 2.96 19.505 7 19 C7.38218767 17.34385343 7.71395102 15.67542976 8 14 C7.67 13.67 7.34 13.34 7 13 C3.38357488 13.43397101 -0.12971372 14.02858099 -3.6875 14.8125 C-7 15 -7 15 -9.4375 13.5 C-11.57590314 10.07855498 -11.56645882 7.96521177 -11 4 C-8.07275826 -0.56649711 -5.15004683 -0.39615745 0 0 Z " fill="#5D5D5D" transform="translate(450,461)"/>
<path d="M0 0 C3.39470755 1.15564512 4.87501175 2.06492057 6.9375 5 C7.1875 8.25 7.1875 8.25 6.9375 11 C5.6175 11 4.2975 11 2.9375 11 C2.958125 10.195625 2.97875 9.39125 3 8.5625 C3.23383621 6.06645115 3.23383621 6.06645115 1.9375 5 C0.27132885 4.95936168 -1.39638095 4.957279 -3.0625 5 C-2.48075155 10.3086849 -2.48075155 10.3086849 -0.0625 15 C-0.1940201 18.68256285 -0.32920443 21.09748237 -2.6875 24 C-6.18650175 25.47326389 -8.43688276 24.97114747 -12.0625 24 C-14.5 22.4375 -14.5 22.4375 -16.0625 20 C-16.38418155 17.24197626 -16.2487691 14.79403643 -16.0625 12 C-14.7425 12.33 -13.4225 12.66 -12.0625 13 C-12.10375 13.94875 -12.145 14.8975 -12.1875 15.875 C-12.41223818 19.10244856 -12.41223818 19.10244856 -10.0625 21 C-7.45969432 20.67958603 -7.45969432 20.67958603 -5.0625 20 C-5.60076529 15.85152868 -5.60076529 15.85152868 -7.125 12 C-8.47819589 9.1131821 -8.52121781 7.14549358 -8.0625 4 C-5.41006048 0.95749584 -4.06863676 0 0 0 Z " fill="#5B5B5B" transform="translate(138.0625,460)"/>
<path d="M0 0 C3.7602985 0.58107632 6.53035032 1.65199496 9.8125 3.5625 C10.60269531 4.01753906 11.39289063 4.47257812 12.20703125 4.94140625 C12.79871094 5.29074219 13.39039063 5.64007813 14 6 C14 6.66 14 7.32 14 8 C9.43545749 7.45660208 6.0271824 6.20536179 2 4 C1.67 6.31 1.34 8.62 1 11 C2.98 11.99 4.96 12.98 7 14 C6.67 14.99 6.34 15.98 6 17 C3.03 16.01 0.06 15.02 -3 14 C-3.66 16.31 -4.32 18.62 -5 21 C-2.03 22.65 0.94 24.3 4 26 C4 26.99 4 27.98 4 29 C-0.9723422 27.50829734 -5.41845739 25.39542583 -10 23 C-9.42022443 19.52401836 -8.53478895 16.70895302 -6.93359375 13.57421875 C-6.53076172 12.77822266 -6.12792969 11.98222656 -5.71289062 11.16210938 C-5.29201172 10.34548828 -4.87113281 9.52886719 -4.4375 8.6875 C-4.01275391 7.85154297 -3.58800781 7.01558594 -3.15039062 6.15429688 C-2.1056521 4.10003574 -1.05540238 2.04879708 0 0 Z " fill="#5A5A5A" transform="translate(182,493)"/>
<path d="M0 0 C4.95 0 9.9 0 15 0 C15 0.99 15 1.98 15 3 C11.04 3 7.08 3 3 3 C3 5.64 3 8.28 3 11 C5.97 11 8.94 11 12 11 C12 11.99 12 12.98 12 14 C9.36 14 6.72 14 4 14 C4 16.97 4 19.94 4 23 C7.96 23 11.92 23 16 23 C16 23.99 16 24.98 16 26 C10.72 26 5.44 26 0 26 C0 17.42 0 8.84 0 0 Z " fill="#5A5A5A" transform="translate(293,520)"/>
<path d="M0 0 C0.66 0 1.32 0 2 0 C2.00515625 0.86882812 2.0103125 1.73765625 2.015625 2.6328125 C2.26947264 6.41514241 2.65832005 9.44328239 4 13 C7.69744712 15.89925171 11.56383207 17.51449423 16 19 C15.67 19.99 15.34 20.98 15 22 C10.87248551 21.39301257 7.6678852 19.96189209 4 18 C4 21.63 4 25.26 4 29 C3.01 29.33 2.02 29.66 1 30 C0.98324219 28.98679687 0.96648437 27.97359375 0.94921875 26.9296875 C0.68939453 19.00542776 0.68939453 19.00542776 -3.58203125 12.66796875 C-6.34984794 11.20767008 -9.03553804 9.99641614 -12 9 C-11.67 8.34 -11.34 7.68 -11 7 C-6.87248551 7.60698743 -3.6678852 9.03810791 0 11 C-0.08378906 10.28972656 -0.16757812 9.57945312 -0.25390625 8.84765625 C-0.35574219 7.92855469 -0.45757812 7.00945312 -0.5625 6.0625 C-0.66691406 5.14597656 -0.77132813 4.22945313 -0.87890625 3.28515625 C-0.91886719 2.53105469 -0.95882813 1.77695312 -1 1 C-0.67 0.67 -0.34 0.34 0 0 Z " fill="#5A5A5A" transform="translate(420,480)"/>
<path d="M0 0 C3.76192574 1.36069654 5.52830163 2.8738551 7.9375 6.0625 C8.25 9.375 8.25 9.375 7.9375 12.0625 C6.6175 12.3925 5.2975 12.7225 3.9375 13.0625 C3.958125 12.11375 3.97875 11.165 4 10.1875 C4.16301826 7.15583717 4.16301826 7.15583717 2.9375 5.0625 C-0.35176495 4.56053706 -0.35176495 4.56053706 -4.0625 5.0625 C-7.01853893 7.95284917 -9.7770832 11.07770792 -11.0625 15.0625 C-10.78705805 18.37800202 -10.78705805 18.37800202 -9.0625 21.0625 C-7.39644172 21.1075286 -5.72871616 21.10124921 -4.0625 21.0625 C-2.7425 21.0625 -1.4225 21.0625 -0.0625 21.0625 C-1.0625 24.0625 -1.0625 24.0625 -3.0625 25.0625 C-9.32769337 25.6426105 -9.32769337 25.6426105 -12.4375 23.1875 C-15.36066319 19.36490198 -15.60749764 16.88962196 -15.0625 12.0625 C-11.90881911 6.20254623 -7.06508614 0.14418543 0 0 Z " fill="#5B5B5B" transform="translate(156.0625,474.9375)"/>
<path d="M0 0 C0.391875 0.515625 0.78375 1.03125 1.1875 1.5625 C2.0846875 2.2740625 2.0846875 2.2740625 3 3 C5.65466049 2.76956136 5.65466049 2.76956136 8 2 C7.34 3.98 6.68 5.96 6 8 C8.475 8.495 8.475 8.495 11 9 C8 11 8 11 6 11 C6.66 12.98 7.32 14.96 8 17 C6.8553125 16.6596875 6.8553125 16.6596875 5.6875 16.3125 C4.800625 16.209375 3.91375 16.10625 3 16 C1.1645201 17.33378575 1.1645201 17.33378575 0 19 C-0.66 17.68 -1.32 16.36 -2 15 C-3.32 15.33 -4.64 15.66 -6 16 C-5.34 14.35 -4.68 12.7 -4 11 C-5.65 10.67 -7.3 10.34 -9 10 C-8.34 9.34 -7.68 8.68 -7 8 C-6.01 8 -5.02 8 -4 8 C-4.99 6.02 -5.98 4.04 -7 2 C-5.02 2.66 -3.04 3.32 -1 4 C-0.67 2.68 -0.34 1.36 0 0 Z " fill="#5B5B5B" transform="translate(486,426)"/>
<path d="M0 0 C0.66 1.32 1.32 2.64 2 4 C3.65 3.67 5.3 3.34 7 3 C6.67 4.65 6.34 6.3 6 8 C7.32 8.66 8.64 9.32 10 10 C8.68 10.33 7.36 10.66 6 11 C6.33 12.65 6.66 14.3 7 16 C5.824375 15.9071875 5.824375 15.9071875 4.625 15.8125 C3.325625 15.9053125 3.325625 15.9053125 2 16 C1.34 16.99 0.68 17.98 0 19 C-0.33 17.68 -0.66 16.36 -1 15 C-2.65 15.33 -4.3 15.66 -6 16 C-5.67 14.35 -5.34 12.7 -5 11 C-6.32 10.34 -7.64 9.68 -9 9 C-7.68 8.67 -6.36 8.34 -5 8 C-5.33 6.35 -5.66 4.7 -6 3 C-4.35 3.33 -2.7 3.66 -1 4 C-0.67 2.68 -0.34 1.36 0 0 Z " fill="#575757" transform="translate(97,426)"/>
<path d="M0 0 C0 0.99 0 1.98 0 3 C-1.98 3 -3.96 3 -6 3 C-5.855625 4.15757812 -5.71125 5.31515625 -5.5625 6.5078125 C-5.37481224 8.04685211 -5.18732273 9.58591591 -5 11.125 C-4.90460938 11.88554688 -4.80921875 12.64609375 -4.7109375 13.4296875 C-4.20169812 17.64909952 -3.89111932 21.74004344 -4 26 C-5.32 26 -6.64 26 -8 26 C-8.33801152 23.45887768 -8.67053379 20.91723254 -9 18.375 C-9.09539062 17.66214844 -9.19078125 16.94929687 -9.2890625 16.21484375 C-9.81606101 12.11178391 -10.10466984 8.14754258 -10 4 C-12.64 4.33 -15.28 4.66 -18 5 C-18 3.68 -18 2.36 -18 1 C-11.97968656 0.39034801 -6.05329744 -0.13451772 0 0 Z " fill="#595959" transform="translate(330,518)"/>
<path d="M0 0 C6.00230002 -0.48667297 11.31700989 1.30117022 17 3 C17 4.32 17 5.64 17 7 C14.03 6.505 14.03 6.505 11 6 C7.99557925 12.45950461 6.02087502 19.17826451 4 26 C3.01 26 2.02 26 1 26 C1.52541447 18.2501365 3.55591476 11.3549914 6 4 C4.02 3.34 2.04 2.68 0 2 C0 1.34 0 0.68 0 0 Z " fill="#5C5C5C" transform="translate(224,511)"/>
<path d="M0 0 C2.36775721 2.36775721 2.99896496 4.29711338 4.125 7.4375 C4.47820312 8.40558594 4.83140625 9.37367187 5.1953125 10.37109375 C6 13 6 13 6 16 C1.71 16 -2.58 16 -7 16 C-6.10613763 11.53068814 -5.12759489 9.05511438 -2.9375 5.1875 C-2.11572266 3.72376953 -2.11572266 3.72376953 -1.27734375 2.23046875 C-0.85582031 1.49441406 -0.43429687 0.75835937 0 0 Z " fill="#F3F3F3" transform="translate(303,55)"/>
<path d="M0 0 C1.23620074 0.86503377 2.46357259 1.74268634 3.6875 2.625 C4.37199219 3.11226563 5.05648437 3.59953125 5.76171875 4.1015625 C8 6 8 6 13 12 C4.585 12.495 4.585 12.495 -4 13 C-2.125 3.89285714 -2.125 3.89285714 0 0 Z " fill="#F3F3F3" transform="translate(507,363)"/>
<path d="M0 0 C-0.33 0.99 -0.66 1.98 -1 3 C-3.00952148 3.87207031 -3.00952148 3.87207031 -5.62109375 4.578125 C-6.55630859 4.85269531 -7.49152344 5.12726563 -8.45507812 5.41015625 C-10.43570915 5.9678978 -12.42014797 6.51229788 -14.40820312 7.04296875 C-19.50189326 8.33148944 -19.50189326 8.33148944 -23.10595703 11.79492188 C-23.77570659 13.92615123 -23.77570659 13.92615123 -24 17 C-26 16 -26 16 -27.0703125 13.34765625 C-27.59238281 11.72150391 -27.59238281 11.72150391 -28.125 10.0625 C-28.47820313 8.98097656 -28.83140625 7.89945312 -29.1953125 6.78515625 C-30 4 -30 4 -30 2 C-29.34 2 -28.68 2 -28 2 C-27.34 3.32 -26.68 4.64 -26 6 C-19.78484158 5.21809297 -14.14913477 3.08513501 -8.28125 0.99609375 C-7.50265625 0.72667969 -6.7240625 0.45726562 -5.921875 0.1796875 C-5.21643555 -0.07055176 -4.51099609 -0.32079102 -3.78417969 -0.57861328 C-2 -1 -2 -1 0 0 Z " fill="#606060" transform="translate(72,350)"/>
<path d="M0 0 C3.53677664 -0.32152515 5.3962104 -0.4131192 8.375 1.625 C10.44703447 4.65335808 10.3007444 6.3910672 10 10 C9.58457138 13.88814492 9.58457138 13.88814492 11.53125 15.921875 C12.1809375 16.52515625 12.830625 17.1284375 13.5 17.75 C14.1496875 18.36359375 14.799375 18.9771875 15.46875 19.609375 C15.9740625 20.06828125 16.479375 20.5271875 17 21 C15.02 21.99 15.02 21.99 13 23 C12.45730469 22.44570313 11.91460937 21.89140625 11.35546875 21.3203125 C10.64003906 20.59585938 9.92460937 19.87140625 9.1875 19.125 C8.47980469 18.40570312 7.77210938 17.68640625 7.04296875 16.9453125 C4.95600806 14.84641063 4.95600806 14.84641063 2 13 C2.680625 12.443125 3.36125 11.88625 4.0625 11.3125 C4.701875 10.549375 5.34125 9.78625 6 9 C5.85974801 6.29294488 5.85974801 6.29294488 5 4 C2.03 3.505 2.03 3.505 -1 3 C-0.67 2.01 -0.34 1.02 0 0 Z " fill="#575757" transform="translate(377,503)"/>
<path d="M0 0 C0.33 0 0.66 0 1 0 C1.495 6.93 1.495 6.93 2 14 C1.34 14 0.68 14 0 14 C-0.33 12.68 -0.66 11.36 -1 10 C-7.93 10 -14.86 10 -22 10 C-22 9.67 -22 9.34 -22 9 C-24.97 8.67 -27.94 8.34 -31 8 C-31 7.67 -31 7.34 -31 7 C-16.645 6.01 -16.645 6.01 -2 5 C-1.34 3.35 -0.68 1.7 0 0 Z " fill="#656565" transform="translate(83,314)"/>
<path d="M0 0 C3.31558858 1.10519619 3.85539107 1.75912668 5.8828125 4.45703125 C6.41003906 5.15763672 6.93726563 5.85824219 7.48046875 6.58007812 C8.02316406 7.31677734 8.56585938 8.05347656 9.125 8.8125 C9.67542969 9.53759766 10.22585938 10.26269531 10.79296875 11.00976562 C15.22835646 16.96539065 15.22835646 16.96539065 16 21 C15.01 21.33 14.02 21.66 13 22 C12.64695801 21.52578613 12.29391602 21.05157227 11.93017578 20.56298828 C10.33012824 18.41573606 8.72759558 16.27035107 7.125 14.125 C6.56941406 13.37863281 6.01382812 12.63226563 5.44140625 11.86328125 C4.90644531 11.14785156 4.37148438 10.43242187 3.8203125 9.6953125 C3.32805176 9.03547363 2.83579102 8.37563477 2.32861328 7.69580078 C0.96315594 5.88280739 0.96315594 5.88280739 -1 4 C-0.625 1.875 -0.625 1.875 0 0 Z " fill="#5A5A5A" transform="translate(429,473)"/>
<path d="M0 0 C0.99 0 1.98 0 3 0 C2.55046968 8.60308032 1.13898002 16.65932321 -1 25 C-2.32 25 -3.64 25 -5 25 C-3.70834692 16.56626517 -2.00616752 8.2921591 0 0 Z " fill="#5B5B5B" transform="translate(247,516)"/>
<path d="M0 0 C1.32 0.33 2.64 0.66 4 1 C0.00367876 8.56812483 -4.3169561 15.83688255 -9 23 C-9.99 22.67 -10.98 22.34 -12 22 C-10.50787224 16.56316666 -7.8990817 12.30936185 -4.875 7.625 C-4.40707031 6.88894531 -3.93914062 6.15289062 -3.45703125 5.39453125 C-2.31041087 3.59269922 -1.15598924 1.79583569 0 0 Z " fill="#595959" transform="translate(172,487)"/>
<path d="M0 0 C3.97497544 3.40712181 5.86793788 7.32760855 8 12 C7.34 12 6.68 12 6 12 C6 11.34 6 10.68 6 10 C1.46705387 7.73352693 -2.0252466 7.6051783 -7 8 C-9.50098982 9.01990794 -9.50098982 9.01990794 -11 11 C-11.8042208 13.59855733 -11.8042208 13.59855733 -12 16 C-12.99 15.01 -13.98 14.02 -15 13 C-14.34084272 10.36337087 -13.66168551 8.51843401 -11.484375 6.8125 C-8.07497565 4.79650734 -4.97765695 3.48214024 -1 3 C-0.67 2.01 -0.34 1.02 0 0 Z " fill="#5E5E5E" transform="translate(168,77)"/>
<path d="M0 0 C0.66 0 1.32 0 2 0 C2.21398437 0.87914062 2.42796875 1.75828125 2.6484375 2.6640625 C4.28893169 6.71314352 6.33026444 8.53999498 9.625 11.375 C10.3984375 12.04982422 10.3984375 12.04982422 11.1875 12.73828125 C12.44904105 13.8362892 13.72327044 14.91969037 15 16 C14.67 16.99 14.34 17.98 14 19 C13.25234375 18.3503125 12.5046875 17.700625 11.734375 17.03125 C10.74953125 16.1959375 9.7646875 15.360625 8.75 14.5 C7.28820312 13.24703125 7.28820312 13.24703125 5.796875 11.96875 C3.02489965 9.61626229 3.02489965 9.61626229 -1 10 C-1.66 10.66 -2.32 11.32 -3 12 C-2.49202991 7.6822542 -1.80317221 3.96697886 0 0 Z " fill="#5F5F5F" transform="translate(62,194)"/>
<path d="M0 0 C0.99 0 1.98 0 3 0 C2.9375 1.75 2.9375 1.75 2 4 C-2.69964834 7.28975384 -6.32241324 8.53652353 -12 9 C-12 10.32 -12 11.64 -12 13 C-12.66 13 -13.32 13 -14 13 C-15.54296875 10.8828125 -15.54296875 10.8828125 -17.1875 8.125 C-18.01314453 6.76761719 -18.01314453 6.76761719 -18.85546875 5.3828125 C-19.23316406 4.59648438 -19.61085937 3.81015625 -20 3 C-19.67 2.34 -19.34 1.68 -19 1 C-17.9790625 1.99 -17.9790625 1.99 -16.9375 3 C-13.24672283 5.51286956 -11.39366908 5.5395734 -7 5 C-2.69156076 3.41772398 -2.69156076 3.41772398 0 0 Z " fill="#5D5D5D" transform="translate(184,113)"/>
<path d="M0 0 C2 3 2 3 2 5 C6.62 5 11.24 5 16 5 C16 5.33 16 5.66 16 6 C19.3 6.33 22.6 6.66 26 7 C26 7.33 26 7.66 26 8 C15.11 8.495 15.11 8.495 4 9 C3.34 10.65 2.68 12.3 2 14 C1.34 14 0.68 14 0 14 C0 9.38 0 4.76 0 0 Z " fill="#737373" transform="translate(41,288)"/>
<path d="M0 0 C2 3 2 3 1.625 5.6875 C1.41875 6.450625 1.2125 7.21375 1 8 C-1.31 8.66 -3.62 9.32 -6 10 C-7.49821059 6.62902617 -8 4.79557881 -8 1 C-5.21136993 -0.39431504 -3.07921132 -0.25660094 0 0 Z " fill="#F1F1F1" transform="translate(360,514)"/>
<path d="M0 0 C2 3 2 3 1.9375 5 C0.60308537 7.84675121 -1.22697925 8.64730695 -4 10 C-4.66 10 -5.32 10 -6 10 C-8.06878307 5.61904762 -8.06878307 5.61904762 -7.75 2.75 C-6.27600078 -0.68933152 -3.33229391 -0.33322939 0 0 Z " fill="#F1F1F1" transform="translate(382,506)"/>
<path d="M0 0 C2.64 1.32 5.28 2.64 8 4 C8 4.33 8 4.66 8 5 C6.824375 4.95875 5.64875 4.9175 4.4375 4.875 C1.23082953 5.23952382 0.20551268 5.77739438 -2.01953125 8.1875 C-3.78331849 10.74220657 -5.42069814 13.32799199 -7 16 C-7.66 16.99 -8.32 17.98 -9 19 C-9.99 18.67 -10.98 18.34 -12 18 C-10.18950952 15.1862016 -8.37627214 12.37418395 -6.5625 9.5625 C-6.04623047 8.76005859 -5.52996094 7.95761719 -4.99804688 7.13085938 C-4.50498047 6.36708984 -4.01191406 5.60332031 -3.50390625 4.81640625 C-2.82050171 3.75595093 -2.82050171 3.75595093 -2.12329102 2.67407227 C-1 1 -1 1 0 0 Z " fill="#646464" transform="translate(88,150)"/>
<path d="M0 0 C6.16666667 5.84210526 6.16666667 5.84210526 7 9 C5.81301179 11.46941266 4.64771477 13.50781483 3.125 15.75 C2.73441406 16.35199219 2.34382813 16.95398438 1.94140625 17.57421875 C0.97520812 19.05886465 -0.01057788 20.53072939 -1 22 C-1.99 21.34 -2.98 20.68 -4 20 C-3.6390625 19.50371094 -3.278125 19.00742188 -2.90625 18.49609375 C1.01632731 12.75387641 1.68125223 9.00235687 0.5 2.0625 C0.335 1.381875 0.17 0.70125 0 0 Z " fill="#606060" transform="translate(116,164)"/>
<path d="M0 0 C4.77609498 1.64178265 8.79382904 4.26546702 13 7 C10 8 10 8 6 8 C4.42481549 9.74477633 4.42481549 9.74477633 3.25 12 C2.82203125 12.7425 2.3940625 13.485 1.953125 14.25 C1.63859375 14.8275 1.3240625 15.405 1 16 C0.34 15.67 -0.32 15.34 -1 15 C-0.690625 14.319375 -0.38125 13.63875 -0.0625 12.9375 C1.15237513 9.57872758 1.73617878 6.56158644 2 3 C1.34 2.01 0.68 1.02 0 0 Z " fill="#646464" transform="translate(96,160)"/>
<path d="M0 0 C0.33 0 0.66 0 1 0 C1 1.65 1 3.3 1 5 C2.98 5 4.96 5 7 5 C3.77208445 7.1519437 2.71599191 7.20086443 -1 7 C-1.66 9.31 -2.32 11.62 -3 14 C-4.32 14 -5.64 14 -7 14 C-5.4421854 8.58305377 -4.01484826 4.14867653 0 0 Z " fill="#575757" transform="translate(260,529)"/>
<path d="M0 0 C0.66 0 1.32 0 2 0 C2.33 1.65 2.66 3.3 3 5 C7.95 5.33 12.9 5.66 18 6 C18 6.33 18 6.66 18 7 C13.545 7.495 13.545 7.495 9 8 C9 8.33 9 8.66 9 9 C6.69 9.33 4.38 9.66 2 10 C1.67 11.32 1.34 12.64 1 14 C0.34 14 -0.32 14 -1 14 C-0.67 9.38 -0.34 4.76 0 0 Z " fill="#747474" transform="translate(502,284)"/>
<path d="M0 0 C3 1 3 1 4.1875 3.0625 C5.78780192 5.18345814 5.78780192 5.18345814 7.96875 5.26171875 C9.98103054 5.25109051 11.99200388 5.13167188 14 5 C10.83047153 8.26008643 7.60062011 11.22237877 4 14 C3.34 13.67 2.68 13.34 2 13 C2.33 12.67 2.66 12.34 3 12 C3.33361919 9.08391002 3.33361919 9.08391002 3 6 C1.56249809 4.31201173 1.56249809 4.31201173 0 3 C0 2.01 0 1.02 0 0 Z " fill="#636363" transform="translate(470,149)"/>
<path d="M0 0 C0.66 0 1.32 0 2 0 C2.33 3.3 2.66 6.6 3 10 C1.02 10 -0.96 10 -3 10 C-2.49287967 6.28111761 -1.88391785 3.26545761 0 0 Z " fill="#EDEDED" transform="translate(264,524)"/>
<path d="M0 0 C0.66 0 1.32 0 2 0 C3.5078125 1.75 3.5078125 1.75 5.125 4 C5.66382813 4.7425 6.20265625 5.485 6.7578125 6.25 C7.16773438 6.8275 7.57765625 7.405 8 8 C5 10 5 10 2 10 C1.34 6.7 0.68 3.4 0 0 Z " fill="#EFEFEF" transform="translate(398,499)"/>
<path d="M0 0 C1.8871875 0.0309375 1.8871875 0.0309375 3.8125 0.0625 C3.4825 1.0525 3.1525 2.0425 2.8125 3.0625 C-3.1275 3.5575 -3.1275 3.5575 -9.1875 4.0625 C-6.53873473 0.0893521 -4.49238456 -0.07364565 0 0 Z " fill="#515151" transform="translate(79.1875,347.9375)"/>
<path d="M0 0 C4.95 0 9.9 0 15 0 C15 0.33 15 0.66 15 1 C17.97 1.495 17.97 1.495 21 2 C21 2.33 21 2.66 21 3 C17.04 3 13.08 3 9 3 C9 2.67 9 2.34 9 2 C6.03 1.67 3.06 1.34 0 1 C0 0.67 0 0.34 0 0 Z " fill="#848484" transform="translate(52,321)"/>
<path d="M0 0 C0.28875 0.61875 0.5775 1.2375 0.875 1.875 C1.93720042 4.13325765 1.93720042 4.13325765 4 6 C0.37 6 -3.26 6 -7 6 C-4.74259377 3.66475218 -2.7194239 1.81294927 0 0 Z " fill="#535353" transform="translate(289,80)"/>
<path d="M0 0 C0.66 0.33 1.32 0.66 2 1 C0.52861945 4.87909417 -1.45361125 6.01056241 -5 8 C-6.75149165 9.58245275 -6.75149165 9.58245275 -8 11 C-8.66 10.67 -9.32 10.34 -10 10 C-6.7 6.7 -3.4 3.4 0 0 Z " fill="#6D6D6D" transform="translate(116,117)"/>
<path d="M0 0 C0.66 0.33 1.32 0.66 2 1 C2 1.66 2 2.32 2 3 C1.0409375 3.6496875 1.0409375 3.6496875 0.0625 4.3125 C-2.49927596 6.40849852 -2.65221564 7.78299472 -3 11 C-3.99 10.01 -4.98 9.02 -6 8 C-4.73058503 4.08597051 -3.48832306 2.20927127 0 0 Z " fill="#666666" transform="translate(159,82)"/>
<path d="M0 0 C2.31 0 4.62 0 7 0 C7.33 0.99 7.66 1.98 8 3 C5.36 3.33 2.72 3.66 0 4 C0 2.68 0 1.36 0 0 Z " fill="#747474" transform="translate(312,519)"/>
<path d="M0 0 C0.99 0.66 1.98 1.32 3 2 C2.34 3.65 1.68 5.3 1 7 C-0.32 6.67 -1.64 6.34 -3 6 C-2.67 4.68 -2.34 3.36 -2 2 C-1.34 2 -0.68 2 0 2 C0 1.34 0 0.68 0 0 Z " fill="#EBEBEB" transform="translate(308,154)"/>
<path d="M0 0 C1.32 1.32 2.64 2.64 4 4 C3.01 5.485 3.01 5.485 2 7 C0.68 6.67 -0.64 6.34 -2 6 C-1.49396008 3.83125748 -1.00016187 2.00032373 0 0 Z " fill="#F7F7F7" transform="translate(297,151)"/>
<path d="M0 0 C-0.33 0.99 -0.66 1.98 -1 3 C-3.31 3.33 -5.62 3.66 -8 4 C-8 3.34 -8 2.68 -8 2 C-3.61016949 -1.20338983 -3.61016949 -1.20338983 0 0 Z " fill="#545454" transform="translate(156,496)"/>
<path d="M0 0 C1.20076172 0.31324219 1.20076172 0.31324219 2.42578125 0.6328125 C3.23402344 0.83648437 4.04226563 1.04015625 4.875 1.25 C5.48988281 1.41757812 6.10476563 1.58515625 6.73828125 1.7578125 C5.74828125 3.2428125 5.74828125 3.2428125 4.73828125 4.7578125 C1.43828125 3.7678125 -1.86171875 2.7778125 -5.26171875 1.7578125 C-2.26171875 -0.2421875 -2.26171875 -0.2421875 0 0 Z " fill="#626262" transform="translate(361.26171875,55.2421875)"/>
<path d="M0 0 C-0.38597015 2.79828356 -0.80136573 3.8205884 -2.9375 5.75 C-5 7 -5 7 -7 7 C-7 4 -7 4 -5.1875 1.8125 C-3 0 -3 0 0 0 Z " fill="#636363" transform="translate(187,113)"/>
<path d="M0 0 C2.625 -0.1875 2.625 -0.1875 5 0 C5 1.32 5 2.64 5 4 C2.69 3.67 0.38 3.34 -2 3 C-1.34 2.01 -0.68 1.02 0 0 Z " fill="#545454" transform="translate(445,461)"/>
<path d="M0 0 C0.33 0 0.66 0 1 0 C0.38461538 6.52307692 0.38461538 6.52307692 -1.5625 8.9375 C-2.036875 9.288125 -2.51125 9.63875 -3 10 C-3.66 9.34 -4.32 8.68 -5 8 C-4.19185349 6.66402348 -3.37836819 5.331275 -2.5625 4 C-2.11003906 3.2575 -1.65757813 2.515 -1.19140625 1.75 C-0.79824219 1.1725 -0.40507813 0.595 0 0 Z " fill="#6A6A6A" transform="translate(117,176)"/>
<path d="M0 0 C2.64 0 5.28 0 8 0 C8 0.99 8 1.98 8 3 C5.69 3 3.38 3 1 3 C0.67 2.01 0.34 1.02 0 0 Z " fill="#525252" transform="translate(297,531)"/>
<path d="M0 0 C-0.33 0.99 -0.66 1.98 -1 3 C-2.65 3.33 -4.3 3.66 -6 4 C-6 3.34 -6 2.68 -6 2 C-6.66 1.67 -7.32 1.34 -8 1 C-2.25 -1.125 -2.25 -1.125 0 0 Z " fill="#696969" transform="translate(63,353)"/>
<path d="M0 0 C0.99 0.33 1.98 0.66 3 1 C2.67 2.32 2.34 3.64 2 5 C0.68 4.67 -0.64 4.34 -2 4 C-2 3.01 -2 2.02 -2 1 C-1.34 0.67 -0.68 0.34 0 0 Z " fill="#F1F1F1" transform="translate(276,156)"/>
<path d="M0 0 C0.99 0.66 1.98 1.32 3 2 C1.95125002 4.62187494 1.35068687 5.79371361 -1.125 7.25 C-1.74375 7.4975 -2.3625 7.745 -3 8 C-1.125 2.25 -1.125 2.25 0 0 Z " fill="#656565" transform="translate(290,74)"/>
<path d="M0 0 C3.73639216 1.24546405 4.18756513 2.63404953 6 6 C5.34 6.66 4.68 7.32 4 8 C0 2.25 0 2.25 0 0 Z " fill="#616161" transform="translate(485,138)"/>
<path d="M0 0 C0.66 0 1.32 0 2 0 C1.67 2.31 1.34 4.62 1 7 C0.01 7.33 -0.98 7.66 -2 8 C-1.34 5.36 -0.68 2.72 0 0 Z " fill="#646464" transform="translate(504,363)"/>
<path d="M0 0 C0.66 0 1.32 0 2 0 C2 0.66 2 1.32 2 2 C2.66 2 3.32 2 4 2 C4 1.34 4 0.68 4 0 C5.32 0.33 6.64 0.66 8 1 C7.34 1 6.68 1 6 1 C5.67 1.99 5.34 2.98 5 4 C3.0625 3.6875 3.0625 3.6875 1 3 C0.67 2.01 0.34 1.02 0 0 Z " fill="#C7C7C7" transform="translate(330,207)"/>
</svg>
