<svg xmlns="http://www.w3.org/2000/svg" width="99.574" height="40" viewBox="0 0 99.574 40"><g id="Grupo_89" data-name="Grupo 89" transform="translate(-97.6 -132.712)"><path id="Trazado_209" data-name="Trazado 209" d="M174.038,172.712c-4.773-.03-8.656-4.235-8.656-9.373,0-5.168,3.883-9.373,8.655-9.373a8.584,8.584,0,0,1,7.524,4.758l.077.145c.084.169.163.342.238.517l.025.058c.031.072.063.145.093.219.074.188.14.382.2.578l.037.108c.02.059.04.117.056.176.061.208.109.421.157.635l.028.115c.011.049.023.1.033.147.045.231.078.452.108.666l-11.137,3.1.172.338a4.889,4.889,0,0,0,3.453,2.812,4.556,4.556,0,0,0,.8.071,6.307,6.307,0,0,0,4.854-2.758l2.031,1.484a9.37,9.37,0,0,1-8.682,5.578Zm-.391-15.058a2.992,2.992,0,0,0-.7.085c-1.633.39-2.467,1.774-2.345,3.9l.022.385,6.095-1.695-.154-.332C175.86,158.464,174.85,157.654,173.647,157.654Zm-50.564,15.058a6.223,6.223,0,0,1-6.216-6.216c0-2.461,1.574-4.572,4.318-5.792a11.712,11.712,0,0,1,4.328-.769c.411,0,.817.019,1.206.058l.371.036-.031-.37a2.46,2.46,0,0,0-2.476-2.2,2.5,2.5,0,0,0-2.188,1.241l-2.841-1.131a7.037,7.037,0,0,1,6.367-3.6c3.808,0,6.905,2.638,6.905,5.88l-.005.119-.006.332h.011v8.768h1.487v3.277h-6.73l-.265-1.274-.394.311A6.15,6.15,0,0,1,123.083,172.712Zm3.682-9.586c-3.694,0-4.246,1.933-4.246,3.085a2.151,2.151,0,0,0,2.385,2.23,2.206,2.206,0,0,0,2.173-2.195v-3.12Zm56.764,9.214v-3.277h1.5V157.37h-1.5v-3.277h7.252v1.928l.515-.456a5.859,5.859,0,0,1,5.878-1.122l-2.746,4.389a2.24,2.24,0,0,0-.962-.357,1.9,1.9,0,0,0-.229-.012,2.441,2.441,0,0,0-2.456,2.206v8.394h1.5v3.277Zm-27.1,0v-3.277h1.518v-8.881a1.626,1.626,0,0,0-1.425-1.708,2.835,2.835,0,0,0-.333-.019,3.9,3.9,0,0,0-2.659,1.22l-.1.1.005.185v9.108h1.488v3.277h-8.754v-3.277h1.518v-8.881a1.624,1.624,0,0,0-1.424-1.708,2.793,2.793,0,0,0-.332-.019,3.915,3.915,0,0,0-2.673,1.232l-.1.092v9.284h1.5v3.277h-8.754v-3.277h1.5V157.37h-1.5v-3.277h7.252v1.928l.516-.456a5.869,5.869,0,0,1,8.755,1.118l.257.38.256-.38A5.878,5.878,0,0,1,163.7,159.97v9.093h1.486v3.277Zm-58.829,0v-3.277h1.5V150.734H97.6v-3.277h6.438v-.006h3.846a9.492,9.492,0,0,1,9.7,9.248,9.262,9.262,0,0,1-9.256,9.246,8.089,8.089,0,0,1-3.048-.542l-.426-.172v3.832h1.5v3.277Zm7.252-10.975.088.091a3.07,3.07,0,0,0,1.729.939c.172.017.336.025.5.025a3.34,3.34,0,0,0,3.237-2.243,8.708,8.708,0,0,0,.555-3.237c0-5.174-4.035-6.045-5.77-6.18l-.334-.026Z" fill="#fff"></path><path id="Trazado_210" data-name="Trazado 210" d="M171.522,132.712c-.8,4.6-13.938,11.941-31.417,17.495a4.589,4.589,0,0,0,.121-.8c.259-4.536-6.59-8.9-16.973-11.6a104.378,104.378,0,0,0,13.545,1.624C153.557,140.374,167.791,137.46,171.522,132.712Z" fill="#fff"></path><path id="Trazado_211" data-name="Trazado 211" d="M140.226,149.408a4.589,4.589,0,0,1-.121.8A142.366,142.366,0,0,0,155.9,144.2c-6.318-.189-14.262-3.228-27.368-5.543-1.821-.242-3.588-.525-5.279-.846C133.636,140.512,140.485,144.872,140.226,149.408Z" fill="#fff"></path><path id="Trazado_212" data-name="Trazado 212" d="M156.128,138.7a96.845,96.845,0,0,1-19.33.728,106.384,106.384,0,0,1-11.134-1.2c6.92,1.307,25.665,5.592,14.441,11.978C140.1,150.207,153.271,145.756,156.128,138.7Z" fill="#fff"></path><path id="Trazado_213" data-name="Trazado 213" d="M150.083,141.46" fill="#fff"></path><path id="Trazado_214" data-name="Trazado 214" d="M140.1,150.207a44.034,44.034,0,0,0,11.932-6.413c-5.718-.935-12.945-3.278-23.551-5.148-.957-.128-1.9-.266-2.822-.417C132.584,139.536,151.329,143.821,140.1,150.207Z" fill="#fff"></path></g></svg>