<svg xmlns="http://www.w3.org/2000/svg" xmlns:xlink="http://www.w3.org/1999/xlink" id="Capa_1" x="0px" y="0px" viewBox="0 0 999 540" xml:space="preserve"><g>	<g>		<path fill="#004CD7" d="M760.3,406c-48.3-0.1-87.8-42.5-88-94.5c-0.2-52.3,38.9-95,87.2-95.2c31.4-0.1,60.7,18.2,76.4,47.9   l0.7,1.4c0.9,1.7,1.7,3.4,2.5,5.2l0.3,0.6c0.3,0.7,0.7,1.5,0.9,2.2c0.8,1.9,1.4,3.8,2.1,5.8l0.4,1.1c0.2,0.6,0.4,1.2,0.6,1.8   c0.6,2.1,1.1,4.3,1.6,6.4l0.3,1.2c0.1,0.5,0.2,1,0.3,1.5c0.5,2.3,0.8,4.6,1.1,6.7l-112.6,31.8l1.8,3.4c8.3,16,20.5,25.8,35.1,28.4   c2.6,0.4,5.4,0.7,8.1,0.7c17.7-0.1,35-10,49-28.1l20.6,15c-12.4,27.8-41.6,56.6-87.6,56.8L760.3,406z M755.8,253.6   c-2.3,0-4.6,0.3-7.1,0.9c-16.5,4-24.9,18-23.6,39.5l0.2,3.9l61.6-17.4l-1.6-3.4C778.2,261.7,767.9,253.5,755.8,253.6z    M255.6,407.9c-34.7,0.1-63-28-63.2-62.7c-0.1-24.9,15.8-46.3,43.5-58.8c10.6-4.8,27.8-7.9,43.8-8c4.1,0,8.3,0.2,12.2,0.5l3.8,0.4   l-0.3-3.7c-1.1-12.5-12.1-22.2-25.2-22.2c-9.3,0-17.7,4.9-22.1,12.6l-28.8-11.3c10.7-22,36.1-36.6,64.3-36.7   c38.5-0.2,70,26.4,70.1,59.2l0,1.2l-0.1,3.3h0.1l0.5,121.9l-53.1,0.2l-2.7-12.9l-4,3.2C283.2,403.1,269.8,407.8,255.6,407.9z    M292.5,310.7c-37.4,0.1-42.9,19.7-42.8,31.4c0.1,13.9,9.3,22.5,24.2,22.5c12.2-0.2,22-10.2,21.9-22.3l-0.1-31.6L292.5,310.7z    M871.6,401.8l-0.1-26.3l0-6.8L871,250.3l-15.2,0.1l-0.1-33.2l73.4-0.3l0.1,19.5l5.2-4.6c10.9-9.7,24.8-15,39.2-15.1   c6.9,0,13.7,1.1,20.2,3.5l-27.6,44.5c-3-1.9-6.4-3.2-9.8-3.6c-0.8-0.1-1.5-0.1-2.3-0.1c-11.7,0-24.8,9.6-24.8,22.4l0.3,85l0,6.8   l0.1,26.4L871.6,401.8z M594.7,403.2l-0.1-27.3l0-6.2l-0.3-89.9c0-7.8-4.5-16.1-14.5-17.2c-1.1-0.1-2.2-0.2-3.4-0.2   c-9.1,0-18.2,4.2-26.8,12.4l-1,1l0.1,1.9l0.4,92.2l0,6.5l0.1,27.1l-58.2,0.2l-0.1-26.7l0-6.9l-0.3-89.9c0-7.8-4.5-16.1-14.5-17.2   c-1.1-0.1-2.2-0.2-3.4-0.2c-9.2,0-18.3,4.3-27,12.6l-1,0.9l0.4,94l0,6.4l0.1,27.1l-58.2,0.2l-0.6-151.9l-15.2,0.1l-0.1-33.2   l73.4-0.3l0.1,19.5l5.2-4.6c10.9-9.7,24.8-15,39.2-15.1c19.8-0.1,38.3,9.7,49.4,26l2.6,3.8l2.6-3.9c11-16.5,29.4-26.3,49.2-26.4   c32.8-0.1,59.6,26.5,59.7,59.2l0.3,92l0,6.3l0.1,27.3L594.7,403.2z M6.6,405.1l-0.1-33.2h0.2L6,186.4H5.8l-0.1-33.2l50.1-0.2V153   l38.9-0.2c54.1-0.2,98.3,41.6,98.5,93.2c0.2,51.6-41.7,93.8-93.3,94c-11.5,0-21.9-1.8-30.9-5.4l-4.3-1.7l0.1,38.8H65l0.1,33.2   L6.6,405.1z M64.5,293.8l0.9,0.9c5.2,5.3,11.9,8.9,17.5,9.4c1.7,0.2,3.4,0.2,5,0.2c15.2,0,26.5-7.9,32.7-22.8   c4.6-11.1,5.5-23.9,5.5-32.8c-0.2-52.4-41.1-61-58.6-62.3l-3.4-0.2L64.5,293.8z"></path>		<g>			<path fill="#004CD7" d="M527.4,89.6"></path>			<path fill="#004CD7" d="M525.8,89.8"></path>			<path fill="#004CD7" d="M745-0.2c-7.9,46.8-141.3,122-318.7,179.1c0.6-2.7,1-5.4,1.2-8.1c2.4-46.1-67.3-90.2-173-117.3    c42.2,7.9,88.8,13.4,137.8,16C562.6,78.4,707.3,48.2,745-0.2z"></path>			<path fill="#004CD7" d="M427.4,170.8c-0.1,2.8-0.5,5.4-1.2,8.1c59.5-19.2,113.9-40.3,160.3-61.7c-64.3-1.7-145.1-32.3-278.5-55.3    c-18.5-2.4-36.5-5.2-53.7-8.4C360.1,80.6,429.9,124.6,427.4,170.8z"></path>			<path fill="#004CD7" d="M588.7,61.3c-56.8,8.7-124.3,11.9-196.5,8.2c-39.7-2.1-77.8-6.2-113.3-11.8    c70.4,13,261.2,55.9,147.3,121.2C426.3,178.9,559.9,133.1,588.7,61.3z"></path>			<path fill="#004CD7" d="M426.3,178.9c0,0,71.4-24.5,121.1-65.7c-58.2-9.3-131.7-32.8-239.7-51.4c-9.7-1.3-19.3-2.6-28.7-4.1    C349.4,70.7,540.1,113.6,426.3,178.9z"></path>		</g>	</g>	<g>		<path fill="#004CD7" d="M177.3,461.1h17.4l28.8,77h-17.6L200,521h-28.8l-6,17.2H148L177.3,461.1z M175.7,508.4h20l-9.7-28.3h-0.2   L175.7,508.4z"></path>		<path fill="#004CD7" d="M286.5,487c-0.3-1.9-0.9-3.7-1.9-5.3c-1-1.6-2.3-3-3.8-4.3c-1.5-1.2-3.2-2.2-5.1-2.9c-1.9-0.7-3.9-1-6-1   c-3.8,0-7,0.7-9.7,2.2c-2.7,1.5-4.8,3.5-6.5,5.9c-1.7,2.5-2.9,5.3-3.6,8.5c-0.8,3.2-1.1,6.4-1.1,9.8c0,3.2,0.4,6.4,1.1,9.4   c0.8,3.1,2,5.8,3.6,8.3c1.7,2.4,3.8,4.4,6.5,5.9c2.7,1.5,5.9,2.2,9.7,2.2c5.2,0,9.2-1.6,12.1-4.8c2.9-3.2,4.7-7.4,5.3-12.5h16.4   c-0.4,4.8-1.5,9.2-3.3,13.1c-1.8,3.9-4.2,7.2-7.1,9.9c-3,2.7-6.4,4.8-10.4,6.3c-4,1.5-8.3,2.2-13.1,2.2c-6,0-11.3-1-16-3.1   c-4.7-2.1-8.6-4.9-11.9-8.5c-3.2-3.6-5.7-7.8-7.4-12.7c-1.7-4.9-2.6-10.1-2.6-15.6c0-5.7,0.9-11,2.6-16c1.7-5,4.2-9.3,7.4-12.9   c3.2-3.7,7.2-6.5,11.9-8.6c4.7-2.1,10-3.1,16-3.1c4.2,0,8.3,0.6,12,1.8c3.8,1.2,7.2,3,10.1,5.3c3,2.3,5.4,5.2,7.4,8.7   c1.9,3.5,3.2,7.4,3.7,11.9H286.5z"></path>		<path fill="#004CD7" d="M341.2,461.1h17.4l28.8,77h-17.6L364,521h-28.8l-6,17.2H312L341.2,461.1z M339.6,508.4h20l-9.7-28.3h-0.2   L339.6,508.4z"></path>		<path fill="#004CD7" d="M401.3,461.1h33.2c5,0,9.6,0.8,13.9,2.4c4.3,1.6,8,4,11.1,7.1c3.1,3.2,5.6,7.1,7.3,11.9   c1.8,4.7,2.6,10.3,2.6,16.7c0,5.6-0.7,10.8-2.2,15.5c-1.4,4.7-3.6,8.8-6.5,12.3c-2.9,3.5-6.5,6.2-10.9,8.1c-4.3,2-9.5,3-15.4,3   h-33.2V461.1z M418.3,523.9h15.1c2.4,0,4.8-0.4,7.1-1.2c2.3-0.8,4.3-2.1,6.1-3.9c1.8-1.8,3.2-4.2,4.3-7.2   c1.1-2.9,1.6-6.5,1.6-10.8c0-3.9-0.4-7.4-1.1-10.5c-0.8-3.1-2-5.8-3.7-8c-1.7-2.2-4-3.9-6.8-5.1c-2.8-1.2-6.4-1.8-10.5-1.8h-12.1   V523.9z"></path>		<path fill="#004CD7" d="M488.5,461.1h57.6v14.2h-40.7v16.5h37.3V505h-37.3v18.9H547v14.2h-58.5V461.1z"></path>		<path fill="#004CD7" d="M565.6,461.1h23.8l18,53h0.2l17-53h23.8v77h-15.9v-54.6h-0.2l-18.9,54.6h-13.1l-18.9-54h-0.2v54h-15.9   V461.1z"></path>		<path fill="#004CD7" d="M670.7,461.1h16.9v77h-16.9V461.1z"></path>		<path fill="#004CD7" d="M730.8,461.1h17.4l28.8,77h-17.6l-5.8-17.2h-28.8l-6,17.2h-17.1L730.8,461.1z M729.2,508.4h19.9l-9.7-28.3   h-0.2L729.2,508.4z"></path>		<path fill="#004CD7" d="M802.4,512.6c0,2.6,0.5,4.8,1.4,6.6c0.9,1.8,2.2,3.3,3.7,4.4c1.5,1.1,3.3,1.9,5.4,2.5   c2,0.5,4.2,0.8,6.5,0.8c1.5,0,3.1-0.1,4.9-0.4c1.7-0.3,3.3-0.7,4.8-1.5c1.5-0.7,2.8-1.7,3.8-3c1-1.3,1.5-2.9,1.5-4.8   c0-2.1-0.7-3.8-2-5.1c-1.3-1.3-3.1-2.4-5.2-3.3c-2.2-0.9-4.6-1.7-7.3-2.3c-2.7-0.6-5.5-1.3-8.3-2.1c-2.9-0.7-5.7-1.6-8.4-2.6   c-2.7-1-5.2-2.4-7.3-4c-2.2-1.7-3.9-3.7-5.2-6.2c-1.3-2.4-2-5.5-2-9.1c0-4,0.8-7.4,2.5-10.3c1.7-2.9,3.9-5.3,6.6-7.3   c2.7-1.9,5.8-3.4,9.3-4.3c3.5-0.9,6.9-1.4,10.4-1.4c4,0,7.9,0.4,11.6,1.3c3.7,0.9,7,2.4,9.9,4.4c2.9,2,5.2,4.6,6.9,7.7   c1.7,3.1,2.5,6.9,2.5,11.4h-16.4c-0.2-2.3-0.6-4.2-1.5-5.7c-0.8-1.5-1.9-2.7-3.3-3.6c-1.4-0.9-2.9-1.5-4.7-1.8   c-1.8-0.4-3.7-0.5-5.7-0.5c-1.4,0-2.7,0.1-4.1,0.4c-1.4,0.3-2.6,0.8-3.7,1.5c-1.1,0.7-2,1.6-2.7,2.8c-0.7,1.1-1.1,2.5-1.1,4   c0,1.5,0.3,2.7,0.9,3.7c0.6,0.9,1.7,1.8,3.4,2.5c1.7,0.8,4,1.5,7,2.4c3,0.8,6.9,1.9,11.7,3.1c0.9,0.2,2.2,0.5,3.7,0.9   c1.5,0.4,3.1,0.9,4.8,1.6c1.7,0.7,3.4,1.6,5.1,2.6c1.7,1.1,3.2,2.4,4.6,4c1.4,1.6,2.5,3.5,3.4,5.7c0.9,2.2,1.3,4.7,1.3,7.6   c0,3.5-0.7,6.8-2,9.8c-1.4,3-3.4,5.6-6.1,7.8c-2.7,2.2-6,3.9-10,5.2c-4,1.3-8.6,1.9-13.9,1.9c-4.3,0-8.4-0.5-12.4-1.6   c-4-1.1-7.5-2.7-10.5-5c-3-2.2-5.4-5.1-7.3-8.5c-1.8-3.5-2.7-7.6-2.6-12.3H802.4z"></path>	</g></g></svg>